<svg id="Layer_2" data-name="Layer 2" xmlns="http://www.w3.org/2000/svg" viewBox="0 0 64 64"><defs><style>.cls-1-1{fill:none;}.cls-2-1{fill:#eac160;}</style></defs><title>checked</title><rect class="cls-1-1" width="64" height="64"/><path class="cls-2-1" d="M59.46,14.37A3.51,3.51,0,0,1,57.88,19c-14.75,7.55-21.61,21.5-21.69,21.65a3.57,3.57,0,0,1-2.61,2,2.13,2.13,0,0,1-.62.07,3.45,3.45,0,0,1-2.51-1L18.68,29.87a3.55,3.55,0,1,1,5-5l8.53,8.54A61.81,61.81,0,0,1,50,15.4a8.4,8.4,0,0,0-6.52-3.11h-23a8.35,8.35,0,0,0-8.35,8.35v23A8.35,8.35,0,0,0,20.5,52h23a8.36,8.36,0,0,0,8.36-8.36v-17a45.71,45.71,0,0,1,7-7.34A3.54,3.54,0,0,0,59.46,14.37Z"/></svg>