<svg id="Layer_1" data-name="Layer 1" xmlns="http://www.w3.org/2000/svg" viewBox="0 0 64 64"><defs><style>.cls-1-2{fill:none;}.cls-2-2{fill:#fff;}</style></defs><title>unchecked</title><rect class="cls-1-2" width="64" height="64"/><path class="cls-2-2" d="M42.92,17A4.08,4.08,0,0,1,47,21.08V42.92A4.08,4.08,0,0,1,42.92,47H21.08A4.08,4.08,0,0,1,17,42.92V21.08A4.08,4.08,0,0,1,21.08,17H42.92m0-5H21.08A9.07,9.07,0,0,0,12,21.08V42.92A9.07,9.07,0,0,0,21.08,52H42.92A9.07,9.07,0,0,0,52,42.92V21.08A9.07,9.07,0,0,0,42.92,12Z"/></svg>