<?xml version="1.0" standalone="no"?>
<!DOCTYPE svg PUBLIC "-//W3C//DTD SVG 1.1//EN" "http://www.w3.org/Graphics/SVG/1.1/DTD/svg11.dtd" >
<svg xmlns="http://www.w3.org/2000/svg" xmlns:xlink="http://www.w3.org/1999/xlink" version="1.1">
<metadata>
Created by FontForge 20170731 at Tue Apr 21 03:33:59 2020
 By Aleksey,,,
Nicholia (c) Balpirick 2020. All Rights Reserved
</metadata>
<defs>
<font id="Nicholia" horiz-adv-x="416" >
  <font-face 
    font-family="Nicholia"
    font-weight="400"
    font-stretch="normal"
    units-per-em="2048"
    panose-1="2 0 6 0 0 0 0 0 0 0"
    ascent="1638"
    descent="-410"
    x-height="958"
    cap-height="1434"
    bbox="-400 -472 1526 1803"
    underline-thickness="150"
    underline-position="-442"
    unicode-range="U+001D-2212"
  />
<missing-glyph horiz-adv-x="1024" 
 />
    <glyph glyph-name=".notdef" horiz-adv-x="1024" 
 />
    <glyph glyph-name=".notdef" horiz-adv-x="1024" 
 />
    <glyph glyph-name=".null" horiz-adv-x="0" 
 />
    <glyph glyph-name="nonmarkingreturn" horiz-adv-x="682" 
 />
    <glyph glyph-name="space" unicode=" " horiz-adv-x="508" 
 />
    <glyph glyph-name="space" unicode="&#xa0;" horiz-adv-x="508" 
 />
    <glyph glyph-name="exclam" unicode="!" horiz-adv-x="331" 
d="M134 269q-9 5 -16.5 23t-11.5 40q-1 7 -2 15t-2 14q-1 10 -1.5 54.5t-0.5 102.5q0 57 0.5 104t1.5 61q1 10 2 32t2 45q2 43 4.5 99t5 103t4.5 61q0 5 1 17t2 26q5 58 7 84t2 29q1 4 3 24t6 71q1 7 2 13q1 9 1.5 16t0.5 9q0 3 1 11t2 19q2 23 5 34.5t10 17.5q12 11 26 11
q15 0 26 -11q7 -7 10.5 -17.5t4.5 -31t1 -58.5q0 -57 -5.5 -129t-20.5 -211l-13 -127q-3 -28 -6.5 -70t-6.5 -75q-1 -14 -2 -26t-1 -17q-1 -10 -2.5 -36.5t-3 -57.5t-2.5 -55q-1 -18 -2 -37t-2 -31q-1 -16 -1 -34q0 -29 3 -63q1 -10 1.5 -18t1.5 -11q-1 -14 -9 -18.5
t-14 -4.5q-5 0 -12 3zM134 32q-5 3 -8.5 8t-3.5 9q0 1 -1.5 3.5t-4.5 4.5q-5 5 -6.5 9t-1.5 9v6q1 5 3 9.5t8 12.5q5 6 10 11.5t8 8.5q5 5 8 6t10 1t9.5 -1t4.5 -4q2 -2 3 -4t1 -3t1 -4t3 -6q3 -6 3 -17v-5q0 -14 -4 -22q-1 -3 -3 -7.5t-3 -8.5q-4 -13 -12 -16t-12 -3
q-6 0 -12 3z" />
    <glyph glyph-name="quotedbl" unicode="&#x22;" horiz-adv-x="565" 
d="M117 1178q-8 2 -12.5 7.5t-4.5 10.5v2q4 17 63 117q17 30 31 54t18 30q11 22 31 30q14 5 28 5q4 0 9 -1q20 -3 31 -12q3 -3 4.5 -5.5t1.5 -4.5l-1 -5q0 -5 -5.5 -13t-19.5 -27q-38 -47 -118 -160q-9 -13 -14.5 -19t-10.5 -8t-12 -3q-4 0 -9 0.5t-10 1.5zM267 1104
q-9 3 -13.5 8t-4.5 11v2q4 17 63 117q18 30 31.5 53.5t17.5 30.5q12 22 31 30q12 4 24 4q7 0 13 -1q20 -2 31 -12q4 -3 5 -5.5t1 -4.5l-1 -5q0 -3 -2 -7.5t-7.5 -12t-15.5 -19.5q-38 -47 -118 -161q-9 -12 -14.5 -18.5t-10.5 -8.5t-12 -3q-3 0 -8.5 0.5t-9.5 1.5z" />
    <glyph glyph-name="numbersign" unicode="#" horiz-adv-x="1309" 
d="M502 22q-7 1 -12.5 8.5t-5.5 15.5q0 60 125 427q14 41 26 75q11 34 15 46q4 10 5.5 16.5t1.5 8.5v1q-1 0 -10.5 -0.5t-22.5 -2.5q-50 -7 -176 -21l-35 -5t-15 -2q-1 -1 -12 -31.5t-27 -75.5q-1 -1 -2 -3q-17 -48 -37 -104q-20 -54 -33 -91t-30 -82.5t-29 -78.5
q-12 -32 -20 -55t-8 -25q0 -7 -11 -10.5t-23 -3.5h-6q-15 1 -24 7q-3 2 -4.5 4.5t-2 7t-0.5 12.5q2 28 38 142t94 275q15 42 24.5 70.5t9.5 30.5q-1 0 -17.5 -0.5t-40.5 -2.5q-41 -4 -69 -4q-37 0 -50 7q-18 8 -18 19q0 3 2 7q7 14 42 26q19 5 58 12t81 11q18 2 30.5 4
t13.5 3t6.5 14.5t12.5 32.5q9 23 22 57.5t24.5 65t15.5 39.5l2 6l1 2q0 1 -4 1q-3 0 -11 -1q-15 -1 -38 -2h-53q-24 0 -57 3q-47 4 -68 8t-27 12q-5 5 -5 9q0 7 10 13q7 6 19 8.5t40 3.5t82 1q45 0 78.5 0.5t40.5 1.5l15 1l13 36q14 36 41.5 105t56.5 141q13 31 28 67.5
t24 61.5q12 32 19 46.5t15.5 17t24.5 2.5q33 0 40 -15q1 -2 1 -7q0 -9 -4 -26q-8 -27 -32.5 -92t-72.5 -186q-25 -61 -41 -102t-16 -43h1q14 0 220 12l29 2l18 44q10 25 45 108t69.5 163.5t42.5 99.5q3 5 6.5 9.5t5.5 6.5q8 5 20.5 5.5t23 -2.5t13.5 -9q1 -2 1 -6t-2 -12
t-8 -24t-16 -42t-25.5 -66t-38 -96t-52.5 -132l-16 -41l11 -1q13 0 74.5 2t135.5 6q25 2 41.5 2.5t24.5 0.5t13 -1q18 -1 30 -5t12 -8q0 -3 -5.5 -9t-12.5 -11.5t-12 -7.5q-3 -1 -14 -2.5t-25 -1.5q-13 -1 -38 -2.5t-52 -2.5q-4 -1 -8 -1q-30 -2 -67 -4t-64 -3
q-27 -2 -45.5 -3t-19.5 -2q-2 -4 -15.5 -37.5t-30 -77.5t-29 -79t-12.5 -37q0 -1 24 -2t58 -2q62 -1 89 -4t41 -10q12 -7 12 -15q0 -5 -6 -11q-9 -7 -28.5 -13t-34.5 -6q-12 1 -20 5t-8 9q0 2 -3 2.5t-12 1t-25 0.5q-18 0 -38 -1t-34 -1l-32 -2l-29 -84q-29 -82 -63.5 -186
t-61.5 -186t-32 -99q-3 -11 -4 -17t-1 -9t2 -4q2 -2 2 -4t-2 -5q-5 -9 -15.5 -11t-18.5 -2t-17 1zM585 672q39 1 65 2.5t28 2.5q2 0 62 168q8 23 13 39t5 17h-5q-9 0 -32 -1q-35 -2 -86 -6q-52 -4 -88 -6.5t-37 -2.5q-2 0 -4 -3t-4 -8q-3 -8 -15.5 -41.5t-27 -73
t-23.5 -63.5l-11 -31l34 2q16 1 51.5 2t74.5 3z" />
    <glyph glyph-name="dollar" unicode="$" horiz-adv-x="835" 
d="M294 95q-158 23 -190 126q-4 15 -4 28v17q0 16 3 28q10 43 47 82q55 62 142 87q10 3 16 3q7 0 10 -3q4 -3 4 -8q0 -3 -2 -7q-5 -9 -22 -14q-100 -41 -133 -128q-3 -10 -4 -17.5t-1 -22.5q0 -20 4 -35t15 -32q26 -40 69.5 -56.5t76.5 -16.5q18 0 36 4q25 7 52 23
q5 112 14.5 213.5t32.5 251.5q1 6 2.5 18.5t3.5 25.5q4 26 11 70q-7 6 -15 13q-72 55 -112 111.5t-40 140.5v13q5 104 80 204q13 18 34.5 38.5t38.5 33.5q49 36 115 46q18 102 26 132q2 7 10 12.5t18 6.5q4 0 6 -1.5t4 -5.5q4 -5 4 -18t-3.5 -42.5t-12.5 -82.5q63 -7 94 -69
q11 -27 11 -56q0 -22 -7 -46q-5 -17 -15.5 -40.5t-22.5 -41.5q-5 -9 -12 -17q-11 -14 -21 -14t-12 7t-2 10q0 9 7 22q21 34 24 57t3 32q0 29 -14 59q-19 36 -41 45q-10 -65 -15.5 -101t-9 -60t-7.5 -52q-3 -28 -8 -63t-8 -62q-4 -30 -9 -77q-5 -37 -9 -69l-5 -39
q18 -17 34 -33t23 -24q42 -49 62 -103q15 -42 15 -103v-8q0 -66 -23 -131q-60 -152 -195 -228q-7 -50 -16 -115q-4 -30 -7 -44t-6.5 -19t-10.5 -9q-3 -1 -6.5 -2t-7.5 -1q-7 0 -9 3q-1 2 -1 10.5v19.5q3 50 5 94l2 40q-30 -9 -71 -10h-45zM477 204q37 34 65 77q37 61 47 117
t10 95q0 15 -1 28q-3 50 -9 67q-15 45 -48 83l-5 -41q-17 -132 -27.5 -210t-21.5 -149q-4 -31 -10 -67zM567 1271q-23 -16 -42.5 -40.5t-34.5 -49.5q-57 -90 -59.5 -142.5t-2.5 -59.5q0 -90 62 -164q6 36 10.5 63.5t6.5 38.5q2 14 6.5 42t9.5 58q4 23 9 53q8 47 14 83
q11 63 21 118z" />
    <glyph glyph-name="percent" unicode="%" horiz-adv-x="810" 
d="M111 168q-10 2 -11 6v1q0 2 1 7q1 7 4 15q129 360 322 686q5 8 15 25.5t22 36.5q2 4 4 7q7 12 16 27q22 38 40 69q64 108 106 173q-32 -15 -94 -38q-12 -4 -50.5 -16t-84.5 -25q12 -26 13 -46q0 -22 -10 -47.5t-26 -43.5q-54 -55 -108 -55h-9q-14 2 -33.5 10.5
t-30.5 17.5q-39 31 -39 78q0 29 16 65q13 30 33 55.5t41 39.5q24 14 48 14q22 0 45 -12q23 -15 45 -49q52 13 98.5 27.5t63.5 21.5q18 6 51.5 19.5t59.5 25.5q4 5 10.5 5.5t8.5 0.5q9 0 19 -3q5 -1 7.5 -3t4.5 -6q1 -3 1 -6q0 -5 -2 -12q-3 -11 -16 -36.5t-40 -72.5
q-30 -53 -45.5 -81t-25.5 -46t-21 -39q-10 -20 -23 -45t-22 -44q-146 -290 -297 -578q-23 -43 -46 -87q-11 -21 -17.5 -31t-11 -12t-11.5 -2h-4q-3 0 -8 0.5t-9 2.5zM297 1153q21 2 51 8q-3 9 -7 15t-6 6q-5 0 -14.5 -7t-19.5 -17l-3 -3q-1 -1 -1 -2zM356 1131
q-36 -8 -56 -8h-4q-12 0 -20 2q-17 -27 -27 -55.5t-10 -49.5q1 -6 2 -12.5t3 -11.5t3 -5h5q4 1 9 3q40 13 68 48t29 72q0 8 -2 17zM453 306q-39 31 -39 78q0 30 16 66q13 30 33 55.5t41 39.5q23 13 47 13q23 0 46 -12q25 -16 48 -54t25 -67q0 -22 -10 -48t-26 -43
q-54 -55 -108 -55h-9q-14 2 -33.5 10.5t-30.5 16.5zM517 322q40 14 68 48.5t29 72.5q0 12 -4 27.5t-9.5 27.5t-10.5 13q-4 -1 -14 -8t-20 -17q-25 -27 -43 -68t-18 -70q0 -5 1.5 -11.5t3.5 -11.5t3 -6q1 0 5 1t9 2z" />
    <glyph glyph-name="ampersand" unicode="&#x26;" horiz-adv-x="681" 
d="M295 2q-17 4 -17 84v9v41t1 37l1 32l-29 -14q-50 -25 -76 -26h-6q-47 0 -64 42q-4 10 -4.5 21.5t-0.5 16.5q0 11 1 21q11 62 71.5 151.5t151.5 179.5q25 25 45.5 43t54.5 46q12 9 20 16l8 7h-1q-4 0 -18 -2q-19 -2 -46.5 -6.5t-57.5 -9.5q-44 -8 -68.5 -10.5t-43.5 -2.5
q-58 0 -82 26q-27 27 -27 67q0 46 35 109q47 82 122 161l20 21l-2 8q-2 20 -2 64v31q0 68 3.5 134.5t7.5 91.5q11 43 28 43h3q19 -5 21 -50l-2 -111q-3 -72 -3 -161q0 -1 1 -1q2 0 17 11q78 57 135 59q37 0 61 -26q26 -27 26 -75q0 -13 -2 -28q-2 -16 -9 -41.5t-12 -40.5
q-6 -15 -10 -20t-10 -5h-2q-7 0 -8.5 5t-1.5 11q0 7 1 17q3 37 3 62q0 15 -1 26q-3 29 -15 40q-2 2 -4 3.5t-5 1.5t-8 -1q-49 -6 -126.5 -76t-143.5 -167q-45 -69 -45 -102q0 -10 3.5 -14.5t13.5 -7.5q11 -4 28 -4q6 0 14 1q27 1 87 9q85 12 114.5 15t42.5 3t20 -2
q24 -5 30.5 -17t6.5 -20q0 -11 -6 -23q-5 -11 -22 -28.5t-56 -52.5q-63 -57 -107.5 -104.5t-85.5 -102.5q-65 -87 -87 -139q-6 -15 -8 -27t-2 -18v-3q1 -3 2.5 -4t6.5 -1q27 0 108 40q37 18 80 42.5t113 66.5q34 20 57.5 34.5t26.5 15.5q2 1 4 1q3 0 5 -1q5 -1 8 -4
t3.5 -8.5t-0.5 -10.5q-4 -6 -41.5 -32.5t-87 -59.5t-90.5 -57q-10 -7 -16.5 -11t-9.5 -6t-3.5 -3.5t-0.5 -2.5v-2q3 -11 3.5 -17.5t0.5 -10.5q0 -8 -1 -21q-2 -19 -6 -60q0 -5 -1 -10q-2 -26 -4 -49t-2 -30v-12t-1 -6t-4 -4q-6 -7 -13 -7q-4 0 -8 2z" />
    <glyph glyph-name="quotesingle" unicode="'" 
d="M118 1178q-9 2 -13.5 7.5t-4.5 10.5v2q4 17 63 117q18 30 31.5 54t17.5 30q11 22 31 30q14 5 28 5q4 0 9 -1q20 -3 31 -12q4 -3 5 -5.5t1 -4.5l-1 -5q0 -5 -5.5 -13t-19.5 -27q-38 -47 -118 -160q-9 -13 -14.5 -19t-10.5 -8t-12 -3q-3 0 -8.5 0.5t-9.5 1.5z" />
    <glyph glyph-name="parenleft" unicode="(" horiz-adv-x="609" 
d="M296 12q-46 6 -91 51q-80 74 -98 236q-7 50 -7 108q0 157 51 372q57 248 156 444q80 153 150 193q7 4 12.5 5t15.5 1t14 -0.5t6 -2.5t3 -4t1 -3q0 -2 -2 -4t-5 -3.5t-6 -1.5t-12.5 -9t-21.5 -22.5t-22 -26.5q-77 -105 -144 -280.5t-108 -378.5q-16 -77 -23 -137.5
t-8 -122.5v-24q0 -129 30 -220q38 -108 116 -146q12 -5 22 -5q15 0 28 11q10 9 19 9q5 0 9 -3l4 -4l-5 -8q-10 -14 -29.5 -19.5t-38.5 -5.5q-8 0 -16 1z" />
    <glyph glyph-name="parenright" unicode=")" horiz-adv-x="517" 
d="M108 38q5 4 10 5.5t7 1.5q4 0 6 -2q3 -2 3 -6q0 -2 -1 -5q-2 -5 -2 -7t1 -3q3 -3 15 -3q15 0 27 6.5t27 20.5q56 50 94 209q51 199 60 406q1 30 1.5 90t0 120.5t-1.5 90.5q-10 199 -37 338q-7 34 -14.5 64t-13.5 44q-3 7 -4.5 12t-1.5 6q0 4 5 5.5t10 1.5h5q9 0 15 -4
q44 -31 71 -180q14 -79 20 -155.5t7 -187.5v-57q0 -175 -16 -309q-18 -156 -66 -321q-41 -148 -106 -195q-13 -10 -37.5 -17t-48.5 -7q-12 0 -24.5 4t-15.5 9t-3 8q0 7 8 17z" />
    <glyph glyph-name="asterisk" unicode="*" horiz-adv-x="631" 
d="M132 1188q-24 7 -28 16t-4 12q0 10 12 18q11 8 32 9.5t45 1.5q25 0 59 -1l-2 2q-38 46 -58 71.5t-23.5 34.5t-3.5 13q0 5 2 7q1 2 4 2.5t4 0.5l4 -1q3 0 6 -1.5t7.5 -5.5t11.5 -12.5t20 -23.5q13 -16 71 -70q-3 57 -3 89t3 48t9 24q7 12 17 12q3 0 7 -2q14 -6 22 -29
q4 -15 4.5 -50.5t-1.5 -77.5q41 31 65.5 47t38 22.5t23.5 6.5q19 0 21 -8.5t2 -11.5q0 -12 -13 -29q-8 -10 -31.5 -27.5t-54.5 -36.5h61q20 2 31 2.5t17 0.5t9 -1t6 -3q3 -3 5 -5.5t2 -4.5q0 -7 -12 -12t-44.5 -9t-91.5 -10l-20 -1q39 -37 60 -58t30 -33.5t11 -22.5
q1 -3 1 -6q0 -14 -12 -18q-5 -2 -11 -2q-11 0 -25 7q-11 6 -33.5 27t-47.5 49q-5 -54 -9.5 -83t-9 -40t-10.5 -11h-1q-2 0 -4.5 1.5t-5.5 4.5q-2 3 -3 6t-1 9t1 17.5t2 30.5q1 8 1 27q0 28 -2 78q-3 -2 -6 -3l-14 -8q-52 -29 -81 -43.5t-37.5 -16.5t-12.5 -2q-6 0 -8 4
q-1 1 -1 3v2q0 3 1 7q1 3 3 5.5t6.5 6t14.5 9t27 15.5q9 5 38 26h-28q-45 0 -64 5z" />
    <glyph glyph-name="plus" unicode="+" horiz-adv-x="678" 
d="M341 415q-3 2 -6 5t-4 7q-10 32 -17 233l-1 11q-1 45 -2 46t-13.5 0.5t-31.5 -1.5q-41 -2 -88 -2t-67 10q-11 7 -11 13q0 8 14 15q21 9 126 15q25 2 42.5 3t20.5 2q2 0 3.5 1.5t1.5 6t-0.5 14.5t-1.5 27v70q1 42 3 75.5t4 39.5q12 17 49 17q45 0 51 -22q6 -15 7.5 -53.5
t1.5 -64.5t-1 -52q-2 -23 -2.5 -38.5t-0.5 -16.5q1 0 15.5 -0.5t33.5 -0.5t39 1q57 0 64.5 -8.5t7.5 -12.5q0 -8 -16 -17q-24 -13 -74 -14q-13 -1 -29 -1h-28h-15q0 -1 -1 -44q0 -20 -1 -50q-4 -178 -11 -201q-2 -4 -5 -7.5t-6 -5.5q-6 -3 -13.5 -3.5t-12.5 -0.5h-10
q-10 1 -15 4z" />
    <glyph glyph-name="comma" unicode="," horiz-adv-x="424" 
d="M107 179q-7 2 -7 6q0 3 9 13q11 14 32.5 49t42.5 72.5t31 61.5q10 23 16 49t6 44q0 32 -20 58q-4 5 -4 7v2q0 2 2 4q9 8 27 8t37 -9q39 -19 42 -44t3 -33q0 -38 -25 -85q-28 -53 -67.5 -109t-63.5 -78q-22 -19 -44 -19q-8 0 -17 3z" />
    <glyph glyph-name="hyphen" unicode="-" horiz-adv-x="914" 
d="M140 609q-40 9 -40 24q0 3 1 6q6 12 31.5 17.5t88.5 7.5q30 2 84 5t106 6q52 4 100.5 7.5t71.5 4.5q22 2 57 3t66 1q38 0 59 -1t31 -4t15 -8q3 -4 3 -5q0 -2 -4 -6q-2 -2 -8 -4t-21.5 -4t-43.5 -4.5t-74 -6.5t-114 -9q-263 -21 -298 -27q-33 -4 -52 -4.5t-26 -0.5
q-20 0 -33 2z" />
    <glyph glyph-name="hyphen" unicode="&#xad;" horiz-adv-x="914" 
d="M140 609q-40 9 -40 24q0 3 1 6q6 12 31.5 17.5t88.5 7.5q30 2 84 5t106 6q52 4 100.5 7.5t71.5 4.5q22 2 57 3t66 1q38 0 59 -1t31 -4t15 -8q3 -4 3 -5q0 -2 -4 -6q-2 -2 -8 -4t-21.5 -4t-43.5 -4.5t-74 -6.5t-114 -9q-263 -21 -298 -27q-33 -4 -52 -4.5t-26 -0.5
q-20 0 -33 2z" />
    <glyph glyph-name="period" unicode="." horiz-adv-x="307" 
d="M127 430q-10 4 -17 11.5t-9 15.5q-1 4 -1 8q0 9 3 19q4 14 11 22q3 3 9 6t11 5q7 2 14 2q8 0 16 -3q15 -6 33 -24q6 -5 8 -9t2 -14q0 -9 -2 -13.5t-9 -11.5q-10 -10 -21 -14q-11 -3 -25 -3t-23 3z" />
    <glyph glyph-name="slash" unicode="/" horiz-adv-x="999" 
d="M915 1392q30 32 44.5 36.5t19.5 4.5q13 0 18 -13q2 -4 2 -10q0 -9 -5 -22q-7 -20 -30 -59q-29 -50 -159 -241t-292.5 -425.5t-290 -415.5t-152.5 -209q-35 -37 -55 -37q-5 0 -9 2q-6 3 -6 10q0 5 4 13q7 17 38 62q30 43 90 135t174 270q211 328 385 585t224 314z" />
    <glyph glyph-name="zero" unicode="0" horiz-adv-x="818" 
d="M345 112q-117 10 -183 81q-62 65 -91 192q-21 93 -21 200q0 74 10 155q23 166 78.5 307.5t128.5 219.5q41 45 64.5 50.5t35.5 5.5q32 0 75 -15q58 -16 102 -71t119 -204q80 -154 98 -270q7 -42 7 -89q0 -71 -16 -154q-27 -130 -97 -235t-159 -148q-32 -15 -66 -20.5
t-60 -5.5q-13 0 -25 1zM417 158q50 16 103 66t92 118q62 113 86 263q5 33 5 74v14q0 50 -6 87q-17 101 -71 207q-34 68 -77 136.5t-70 98.5q-10 11 -28.5 25.5t-36 26t-21.5 11.5q-3 0 -12 -9.5t-20 -23.5t-21 -29q-64 -98 -107.5 -246.5t-56.5 -314.5q-2 -41 -2 -93v-36
q2 -73 8 -115q37 -230 158 -262q14 -3 31 -3h8q21 0 38 5z" />
    <glyph glyph-name="one" unicode="1" horiz-adv-x="516" 
d="M375 109q-11 4 -17.5 20t-12.5 54q-3 23 -5.5 71t-3 154t-1.5 304q0 164 -1 258.5t-3 146.5t-6 90q-1 13 -2.5 22.5t-2.5 11.5q0 1 -1 1q-4 0 -28 -26q-29 -31 -53.5 -62.5t-65.5 -87.5q-29 -41 -45 -53.5t-37 -12.5h-3q-37 1 -37 16q0 11 27.5 56.5t61.5 91.5
q45 60 91 105q33 34 57 46t57 12h7q50 0 73 -27q25 -28 34 -102q1 -10 2.5 -39t3.5 -63q2 -47 1.5 -95t-3.5 -148q-9 -322 -10 -509q0 -137 -14 -212q-2 -16 -8.5 -20.5t-26.5 -4.5q-9 0 -17.5 0.5t-10.5 1.5z" />
    <glyph glyph-name="two" unicode="2" horiz-adv-x="859" 
d="M212 75q-28 8 -30 24q0 3 1.5 6.5t7 10t17.5 18.5t32 33q44 44 73 75.5t62 73.5q257 325 294 635q2 20 2 48q0 18 -1 39q-1 53 -5 81q-31 163 -119 205q-14 7 -23.5 9t-27.5 3h-9q-129 0 -246 -174q-40 -61 -72 -137.5t-44 -140.5q-3 -20 -3 -35.5v-21.5q0 -18 2 -32
q1 -4 1 -8q0 -6 -3 -9q-4 -5 -18 -6h-1q-49 0 -52 67v9q0 66 41 171q41 101 112 185.5t146 123.5q65 34 144 34q109 0 178 -75q78 -82 93 -247q3 -28 3 -57q0 -181 -103 -397q-99 -211 -279 -405q-13 -13 -19 -20.5t-6 -8.5t1 -1q20 6 82 16.5t127 19.5q28 3 62 8.5t57 9.5
q47 9 73 9h5q26 0 37 -10q5 -5 5 -9t-3 -7q-7 -8 -23 -11q-5 -1 -17 -4.5t-24 -8.5q-27 -9 -54.5 -14.5t-72.5 -9.5q-66 -5 -128.5 -16.5t-145.5 -32.5q-55 -14 -74.5 -16.5t-28.5 -2.5q-15 0 -26 3z" />
    <glyph glyph-name="three" unicode="3" horiz-adv-x="785" 
d="M246 36q-59 12 -85 44q-11 16 -32 52t-39 70.5t-18 39.5q0 7 8.5 12t20.5 5q10 0 17 -2.5t7 -5.5q0 -1 8.5 -12t20.5 -27q13 -15 25.5 -31.5t19.5 -26.5q52 -72 98 -72q39 0 99.5 34.5t112.5 85.5q93 93 114 207q5 28 5 60v11q-1 38 -9 68q-21 72 -68 123.5t-105 65.5
q-16 3 -46.5 2.5t-60.5 -3.5q-18 -2 -32 -2q-32 0 -42 11q-4 5 -4 11v2q0 6 10 19t32 37q91 103 136.5 164.5t73.5 121.5q44 94 49.5 138t5.5 58q0 46 -22 67l-11 10l-23 -1q-44 -4 -107.5 -34.5t-125.5 -77.5q-70 -54 -125 -123t-65 -113q-1 -9 -3 -11t-9 -3q-9 0 -16 6
t-10 16q-1 4 -1 9q0 28 27 71q30 51 86 107q148 142 310 177q11 2 26.5 3.5t27.5 1.5q87 -1 113 -58q11 -28 11 -65q0 -32 -8 -71q-18 -84 -71 -178q-67 -117 -180 -233l-23 -24h35q108 0 189 -56q101 -69 121.5 -141t20.5 -114q0 -67 -30 -138q-63 -139 -199 -227
q-73 -43 -141 -58q-25 -4 -46.5 -4.5t-28.5 -0.5q-26 0 -44 3z" />
    <glyph glyph-name="four" unicode="4" horiz-adv-x="976" 
d="M582 -17l-8 7v44q1 19 3.5 65t7.5 97q4 51 7.5 99t5.5 70q1 31 4.5 73.5t6.5 76.5t4 40l1 3l-1 1q-1 1 -4 1.5t-6 0.5q-4 0 -9 -1q-62 -5 -142.5 -14t-118.5 -16q-13 -2 -32 -6.5t-35 -8.5q-42 -10 -66 -14t-48 -4q-59 0 -80.5 24.5t-21.5 71.5q0 10 1 21q7 97 63 311
t138 461q12 35 18.5 50t14.5 18t23 3h1q38 0 44 -23q2 -6 2 -16q0 -6 -1 -14q-3 -21 -15 -65t-36 -124q-54 -182 -97 -343.5t-56 -228.5q-6 -38 -6 -64q0 -44 19 -48q5 0 25.5 3.5t47.5 8.5q28 5 56.5 10t43.5 7q27 3 77.5 8t98.5 9.5t70 5.5l34 2l5 45q42 388 113 688
q12 50 18.5 71.5t13.5 26.5t21 5h8q26 0 33 -12q3 -6 3 -21q0 -34 -15 -115q-24 -129 -36 -196.5t-20 -120.5q-12 -77 -24 -161.5t-18.5 -141t-6.5 -66.5v-2q1 -1 9.5 -2t19.5 -1q12 0 34.5 -1.5t43.5 -2.5q108 -4 108 -22q0 -6 -6.5 -10t-15.5 -4t-16 5q-2 2 -7.5 3.5
t-17 2t-33.5 1.5t-47 2t-41 2l-37 1l-2 -19q-1 -9 -5.5 -45.5t-10.5 -83.5q-5 -47 -12 -105.5t-11 -100.5q-15 -147 -22 -181q-1 -7 -2 -14.5t-2 -12.5q-1 -11 -7 -15t-22 -5h-13t-8 1.5t-6 4.5z" />
    <glyph glyph-name="five" unicode="5" horiz-adv-x="773" 
d="M326 45q-60 14 -118 52q-12 8 -44 38t-63 61t-39 42q-4 5 -4.5 7t-0.5 3v2q0 2 2 3q4 4 12.5 5.5t12.5 1.5q5 0 9 -1q3 -1 13 -8.5t23 -18.5q51 -44 81 -68t49.5 -37t41.5 -24q49 -26 73 -26q36 0 93 39q47 34 89 101.5t66 148.5q15 57 15 113q0 53 -14 106
q-27 84 -96 118q-22 11 -40 15t-44 4q-25 0 -47 -5.5t-50 -17.5q-80 -32 -163 -117q-20 -21 -36 -36t-21 -17q-10 -5 -29 -5t-30 5q-12 5 -14.5 12.5t-2.5 19.5q0 8 1 18q2 34 11.5 120.5t19.5 166.5q18 141 51 334l17 96l-7 5q-3 2 -4.5 5.5t-1.5 6.5q0 5 3 8.5t11 10.5
q5 3 9 25q1 9 3 16.5t4 9.5q7 7 17 8.5t15 1.5q10 0 20 -3q22 -4 22 -27q0 -8 1 -10t2 -2l1 1q1 0 8 1t24.5 2t50 3t84.5 6q74 4 146.5 4.5t91.5 -3.5q12 -3 19 -8t7 -11v-1q-1 -2 -4.5 -4t-7.5 -4q-7 -2 -12 -2q-6 0 -15 2q-9 3 -22 3t-40 -1q-66 -3 -130 -10t-109 -15
q-38 -7 -67.5 -13t-32.5 -7q-1 -4 -10 -62t-20 -133.5t-19 -132.5q-21 -154 -33.5 -248.5t-12.5 -97.5q1 0 7 4.5t14 12.5q45 36 104 67q85 45 169 47h11q215 0 269 -197q3 -14 5 -24t2.5 -23t0.5 -36q0 -43 -5 -73.5t-20 -74.5q-77 -222 -249 -274q-23 -6 -48 -7t-34 -1
q-25 0 -41 4z" />
    <glyph glyph-name="six" unicode="6" horiz-adv-x="701" 
d="M280 63q-81 16 -136 95q-76 112 -85 223t-9 152q0 147 39 307q103 399 327 509q57 26 108 26h10q55 -3 83 -38q16 -23 18 -41t2 -24q0 -24 -10 -44q-3 -7 -5.5 -11t-5.5 -5t-7 -1l-11 -1v23q0 47 -23 75q-10 13 -23 22t-20 9t-25.5 -10t-34.5 -21q-160 -122 -245 -426
q-10 -36 -20 -81t-15.5 -76t-5.5 -39v-3h1q2 0 10 2q11 2 27 7q90 23 146 23q124 0 202 -77q67 -61 77 -139q2 -18 2 -44v-18q-2 -38 -6 -61q-32 -128 -137 -236q-78 -81 -173 -81h-29q-13 1 -26 4zM377 105q101 53 175 198q30 60 31 124v16q0 135 -110 203q-47 30 -102 32
h-9q-68 0 -166 -26l-16 -5l-4 -41q-3 -38 -3 -90v-27q0 -70 4 -109q23 -162 84 -240q35 -45 76 -45q20 0 40 10z" />
    <glyph glyph-name="seven" unicode="7" horiz-adv-x="870" 
d="M66 39q-14 4 -15 8.5t-1 5.5q0 9 7 26q6 15 36 75t64 128.5t54 106.5q25 48 61.5 115t71.5 131q14 24 22.5 40.5t8.5 17.5h-1q-6 0 -30 -4q-29 -5 -73.5 -13t-91.5 -17q-46 -9 -72 -9q-22 0 -30 6q-8 5 -8 9q0 3 4 6q10 6 47 15q24 5 73.5 14t99.5 17t75 11l31 4l15 27
q19 32 46.5 77.5t77.5 127.5q92 150 139 229.5t63.5 113.5t16.5 48q1 5 1 9q0 9 -3 12q-3 4 -17 4q-42 0 -179 -36q-154 -42 -221.5 -57.5t-113.5 -20.5q-33 -4 -67 -4h-14q-41 1 -63 8q-27 10 -27 18q0 6 13 11q4 1 8 1h5q6 -1 11 -3.5t5 -5.5q0 -9 65 -9h14q56 2 126 15
t214 49q96 24 147 35.5t67 13t23 1.5q14 0 24 -3q31 -7 40 -28q5 -11 5 -22q0 -12 -5 -31q-19 -84 -171 -338q-42 -70 -68.5 -115t-41.5 -70.5t-20 -35t-5 -10.5h24q22 1 56 3q85 5 123 5h11q32 -1 32 -8q0 -1 -1 -2q-1 -4 -5 -5.5t-14 -2t-28 -1.5q-31 -1 -78.5 -5.5
t-95.5 -10.5q-18 -2 -28 -3.5t-14 -3.5t-6 -4q-8 -11 -51.5 -89t-102.5 -186q-33 -61 -52.5 -95t-34.5 -58q-7 -12 -23 -40t-34 -60q-69 -123 -85 -134q-6 -4 -13.5 -4.5t-10.5 -0.5q-7 0 -12 1z" />
    <glyph glyph-name="eight" unicode="8" horiz-adv-x="838" 
d="M184 41q-63 13 -98.5 45.5t-35.5 76.5q0 16 8 38.5t19 41.5q24 41 75.5 92.5t163.5 147.5q28 24 54.5 47.5t39.5 35.5q12 12 23 21.5t15 12.5q6 5 6.5 8t-1.5 9q-8 19 -28.5 58.5t-45.5 81.5q-40 70 -61 119t-30 95q-6 30 -6 80q0 51 6 80q20 85 69 154q18 23 44.5 50
t46.5 41q8 6 17.5 11t16.5 7q15 4 30 4q9 0 17 -1q22 -3 26 -15q1 -3 0.5 -5.5t-1.5 -4.5q-3 -2 -3 -5q0 -5 15 -8q41 -11 93 -42.5t84 -64.5q10 -11 16 -20t11 -21q18 -51 18 -107q0 -68 -27 -143q-61 -149 -202 -298l-19 -19l10 -25q34 -89 34 -178q0 -78 -26 -157
q-73 -205 -258 -245q-20 -3 -45 -3h-13q-33 0 -58 5zM585 749q138 169 142 322l1 19q0 82 -40 138q-20 29 -57 56.5t-80 45.5q-3 1 -5 2q-14 6 -19 7t-6 1q-5 0 -9 -2q-5 -4 -13 -14l-3 -3q-109 -130 -109 -273q0 -74 29 -151q5 -14 17.5 -40t25.5 -52q16 -31 32 -61
q10 -21 16 -32l17 -34l16 18q8 8 20.5 23t24.5 30zM300 74q50 18 91 59q72 72 98 192q6 28 7 57t1 39q0 32 -2 53q-2 14 -6.5 33t-9 36t-7.5 24l-4 8l-10 -10q-155 -134 -219 -194t-88 -94q-44 -59 -44 -106q0 -37 28 -66q11 -11 31 -21.5t39 -16.5q14 -4 32 -4q7 0 14 1
q27 2 49 10z" />
    <glyph glyph-name="nine" unicode="9" horiz-adv-x="673" 
d="M209 77q-15 2 -32 8t-28 13q-20 14 -26 38v5q0 5 1 12q1 11 4.5 22t7.5 18q3 6 6 7.5t13 1.5q14 0 16.5 -3.5t2.5 -11.5q0 -5 -1 -14q-1 -7 -1 -13q0 -12 3 -20q3 -11 13 -20q15 -13 43 -13h11q29 3 64.5 22.5t60.5 47.5q50 56 90 165t59 238q11 74 19 185.5t12 226.5
l2 46l-8 -34q-40 -169 -128 -326q-38 -66 -74 -100q-49 -47 -109 -49h-10q-109 0 -149 120q-12 35 -16.5 69t-4.5 88q0 61 6.5 109t22.5 105q27 92 75 171t103 121q57 46 133 46h6q101 0 129 -59q4 -9 5.5 -17.5t1.5 -13.5v-6q-1 -8 -5 -10t-8 -2h-3q-6 1 -14 7.5t-21 19.5
q-24 25 -41 34.5t-37 9.5q-11 0 -18.5 -2t-20.5 -9q-24 -12 -53 -41t-51 -62q-115 -175 -121 -401v-31q0 -28 1 -49q3 -32 11 -63q13 -48 35 -75.5t42 -27.5h4q85 23 186 218q49 95 73.5 176.5t33.5 180.5q4 46 7.5 65t6.5 23q3 2 7.5 3.5t14.5 1.5q11 0 15.5 -1.5
t10.5 -8.5q23 -19 33 -139q2 -31 3 -85t1 -90l-1 -74q-1 -73 -3 -108q-16 -210 -65 -360q-51 -173 -137 -232q-53 -42 -120 -50q-21 -3 -37.5 -3.5t-24.5 -0.5q-15 0 -27 1z" />
    <glyph glyph-name="colon" unicode=":" horiz-adv-x="306" 
d="M126 430q-10 4 -17 11.5t-9 15.5v6q0 10 2 21q4 14 11 22q4 3 9.5 6t10.5 5q6 2 13 2q24 0 51 -27q6 -5 7.5 -9t1.5 -14q0 -9 -2 -13.5t-8 -11.5q-11 -10 -22 -14q-11 -3 -25 -3t-23 3zM126 861q-10 3 -17 10.5t-9 15.5v6q0 10 2 21q4 15 11 22q4 3 9.5 6.5t10.5 4.5
q7 2 13 2q24 0 51 -26q6 -6 7.5 -10t1.5 -13q0 -10 -2 -14.5t-8 -11.5q-5 -5 -11 -8.5t-11 -5.5q-8 -2 -18 -2h-7q-14 0 -23 3z" />
    <glyph glyph-name="semicolon" unicode=";" horiz-adv-x="424" 
d="M107 179q-7 2 -7 6q0 3 8 13q12 14 33.5 49t42.5 72.5t31 61.5q9 23 15.5 49t6.5 44q0 32 -20 58q-4 5 -4 7v2q0 2 2 4q9 8 26 8q18 0 37 -9q39 -19 42.5 -43.5t3.5 -31.5q0 -39 -25 -87q-28 -53 -67.5 -109t-63.5 -78q-22 -19 -44 -19q-8 0 -17 3zM232 861
q-9 3 -16.5 10.5t-8.5 15.5q-1 4 -1 8q0 9 3 19q4 15 11 22q3 3 8.5 6.5t10.5 4.5q7 2 13 2q24 0 51 -26q6 -6 7.5 -10t1.5 -13q0 -10 -1.5 -14.5t-8.5 -11.5q-5 -5 -11 -8.5t-11 -5.5q-8 -2 -18 -2h-7q-14 0 -23 3z" />
    <glyph glyph-name="less" unicode="&#x3c;" horiz-adv-x="623" 
d="M444 348q-32 9 -72 35.5t-102 81.5q-92 82 -130 122.5t-40 57.5v4q0 4 1 9q2 6 9.5 14.5t21.5 23.5q10 10 25 25.5t27 29.5q61 66 127 128t102 86q24 14 42.5 16.5t25.5 2.5q18 0 31 -6q9 -4 10 -7t1 -5q0 -4 -2 -10q-6 -10 -73.5 -78t-157.5 -156q-23 -23 -39.5 -40
t-18.5 -21q-2 -3 -2 -6t3 -7.5t10.5 -14.5t21.5 -27l2 -2q69 -86 165 -178q28 -26 43 -37t30 -17q18 -6 18 -13q0 -2 -1 -4q-6 -8 -22 -9.5t-23 -1.5q-17 0 -33 4z" />
    <glyph glyph-name="equal" unicode="=" horiz-adv-x="778" 
d="M177 585q-18 5 -23.5 11t-5.5 11q0 4 3 8q17 25 256 37q25 1 57.5 3.5t57.5 5.5q50 4 75 4.5t38 -2.5q18 -5 18 -12q0 -8 -23 -19q-9 -4 -13.5 -5.5t-7.5 -1.5h-3q-4 0 -11 1q-9 2 -17 2q-7 0 -14 -1q-109 -18 -165 -27t-78 -11q-24 -3 -54.5 -4.5t-55.5 -1.5t-34 2z
M143 793q-42 9 -42.5 17t-0.5 9q0 15 40 24q28 5 75.5 6.5t99.5 1.5q51 0 122 -1q84 -1 144.5 -2t69.5 -2q27 -5 27 -15q-3 -13 -41 -13q-28 0 -106 -4.5t-137 -9.5q-148 -13 -213 -13q-25 0 -38 2z" />
    <glyph glyph-name="greater" unicode="&#x3e;" horiz-adv-x="569" 
d="M150 350q-6 2 -7 4t-1 4v5q1 4 5 13t10 19q15 25 57.5 88.5t79.5 116.5q34 50 52.5 77.5t24 39t5.5 15.5q0 1 -1 2q-3 6 -35.5 33.5t-74.5 60.5t-75 56q-47 34 -68.5 52t-21.5 27t15 15q14 5 32 5h6q23 -2 42 -10q18 -9 50 -30.5t55 -39.5q26 -21 61 -53.5t64 -61.5
t38 -42q6 -7 6 -16v-2q0 -11 -12 -32.5t-41 -62.5t-79 -109q-126 -175 -136 -175q-8 -3 -19 -3h-6q-16 0 -26 4z" />
    <glyph glyph-name="question" unicode="?" horiz-adv-x="824" 
d="M353 270q-29 8 -40 43q-3 6 -3.5 14.5t-0.5 28.5q0 13 0.5 24t1.5 14t2 9.5t3 14.5q1 8 2.5 16.5t2.5 13.5t3 12.5t3 14.5q8 34 15 54q1 4 3 9.5t3 9.5q0 3 1 6.5t2 5.5q1 1 2.5 6.5t4.5 11.5q2 7 3.5 12.5t2.5 7.5q1 1 3 6.5t4 12.5q2 6 5 14t5 14q2 4 3 9q2 5 3 8
q2 4 4.5 11t5.5 12q0 1 2 5.5t5 11.5l2 4q3 8 6.5 16t5.5 13t4.5 10t3.5 8q10 24 59 121q15 29 33.5 66l32.5 65q26 52 39.5 80t23.5 52q1 3 3 6q3 9 5 13q1 2 3 7t3 10q2 5 3.5 9.5t2.5 5.5q3 8 7.5 27t7.5 34q1 6 1 12q0 27 -16 34q-3 2 -5.5 3t-4.5 2q-3 1 -11 1h-9
q-16 -1 -31 -3.5t-20 -4.5q-1 -1 -3 -1.5t-4 -1.5q-30 -8 -96 -47q-3 -2 -10 -6.5t-15.5 -10.5t-15.5 -11q-39 -28 -82.5 -71.5t-75.5 -87.5q-40 -57 -62 -110q-1 -2 -2 -5q-3 -7 -4 -10q-2 -4 -4.5 -11.5t-4.5 -15t-2 -8.5t-0.5 -2.5t-1.5 -2.5t-2 -4.5t-1 -8.5
q-1 -4 -2 -8.5t-1 -6.5q-5 -24 -5 -49v-9q2 -31 9 -54q10 -35 30 -37q9 -3 10.5 -7.5t1.5 -6.5q0 -5 -5 -9q-3 -2 -6.5 -3t-11.5 -1q-26 0 -44 20q-43 45 -43 131q3 177 170 347q18 17 35 33t28 24q2 1 4 3l12 10q35 27 82 55q6 3 16.5 8.5t21.5 11t19.5 9.5t9.5 4t3 1l4 2
q6 3 15.5 6.5t14.5 4.5q2 0 5 1t4 2q6 2 21 4.5t30 4.5q8 1 15 1q52 0 83 -30q31 -32 31 -84q0 -9 -1 -18q-2 -22 -6.5 -43.5t-8.5 -31.5q-1 -2 -2 -5t-1 -7q-1 -3 -2 -6.5t-2 -5.5q-1 -1 -3.5 -8.5l-5.5 -16.5t-6 -17t-4 -10l-2 -4q-2 -6 -5 -13q-4 -9 -6.5 -15t-7.5 -16
q-1 -4 -2.5 -6.5t-1.5 -3.5l-2 -6l-7 -14q-3 -8 -6 -14l-3 -6q0 -1 -7 -16t-16 -35q-31 -64 -31 -66q0 -1 -0.5 -1.5t-1.5 -0.5h-1l-1 -1q0 -4 -82 -171q-11 -23 -20.5 -42.5t-12.5 -26.5q-24 -50 -24 -52v-1q-1 -1 -2 -3.5t-3 -6.5t-5 -11q-3 -8 -9 -23t-11 -28t-5 -15v-2
t-1 -2t-2 -4t-2 -7t-2 -7t-2 -4l-1 -2q-1 -3 -1 -6q-1 -2 -2 -4.5t-1 -4.5q-2 -2 -5 -13t-6.5 -25.5t-6.5 -27.5q-3 -17 -4 -26t-1 -16v-7q0 -7 0.5 -10t1.5 -4t3 -1q18 -3 21.5 -12t3.5 -14q0 -8 -9 -16q-3 -3 -7.5 -3.5t-12.5 -1.5q-6 0 -11 0.5t-7 0.5zM348 68q-4 2 -8 5
t-6 6q-2 2 -3 4t-1 4.5v4.5v4q0 6 1 10t2 6q0 2 1.5 5.5t2.5 7.5q5 23 17 28t17 5q12 0 23 -9q6 -5 8 -11t2 -17q0 -18 -6 -32.5t-17 -21.5q-6 -3 -15 -3t-18 4z" />
    <glyph glyph-name="at" unicode="@" horiz-adv-x="1004" 
d="M399 175q-148 31 -219 172q-70 142 -80 301v23q0 94 28 201q31 119 88 213q82 135 217 170q12 3 21 4.5t21.5 2t34.5 0.5q23 0 35.5 -0.5t22 -2t21.5 -5.5q147 -41 232 -180q53 -92 76 -198q7 -36 7 -94q0 -57 -7 -101q-19 -113 -50 -163q-32 -47 -66.5 -59t-56.5 -12
q-26 0 -52 11q-59 29 -79 150q-2 14 -2.5 35.5t-0.5 35.5v30q0 30 1 49l2 24l-18 -48q-14 -38 -41.5 -100t-51.5 -111q-19 -39 -36.5 -57t-39.5 -22q-13 -2 -24 -2q-33 0 -57 19q-22 18 -34 66q-5 17 -6 30t-1 42q0 98 30.5 188.5t80.5 144.5q57 56 120 56q31 0 64 -14
q20 -10 40 -30.5t31 -40.5q4 -9 8.5 -16t6.5 -10q5 -4 7.5 -10t4 -19t2.5 -37.5t2 -65.5q1 -44 2.5 -80t2.5 -47q13 -95 36 -124l6 -6t5 -2q2 0 6 2q10 5 25 21.5t26 34.5q51 88 55 224q1 17 1 32q0 23 -2 41q-3 31 -12 64q-37 138 -116 226q-41 42 -93.5 70t-99.5 31h-5
q-66 0 -130 -46q-70 -55 -122 -162.5t-75 -244.5q-6 -43 -6 -78.5v-44.5q0 -51 5 -85q13 -78 40.5 -151.5t58.5 -117.5q70 -91 157 -99q7 -1 13 -1q53 0 105 35q22 14 44.5 32.5t63.5 56.5q57 53 80.5 73t30.5 21q3 1 5 1q3 0 5 -1q6 -1 10 -3t4 -4t-19.5 -23.5t-47.5 -50.5
t-57 -57q-48 -48 -82.5 -70t-76.5 -33q-24 -6 -47.5 -6.5t-30.5 -0.5q-29 0 -47 3zM445 536q31 44 62.5 103.5t53.5 112.5q16 43 25 63t19 37l12 19l-7 13q-8 15 -25.5 31.5t-35.5 29t-28 12.5q-7 0 -19.5 -9t-23.5 -21q-42 -48 -65 -133.5t-23 -191.5q0 -79 10 -108l3 -6
l12 12q6 5 14.5 15.5t15.5 20.5z" />
    <glyph glyph-name="A" unicode="A" horiz-adv-x="1030" 
d="M692 -5q-81 19 -119 115q-37 98 -37 247q0 86 12 189q6 45 17.5 118t22.5 135.5t15 76.5v1q0 3 -2 4q-4 2 -13 5q-8 2 -15 4q-5 1 -7 2q-24 7 -70 32t-90 54q-74 49 -128 53q-2 1 -4 1q-1 0 -3 -1q-2 -2 -5.5 -8t-9.5 -21q-12 -30 -29.5 -81t-25.5 -83q-33 -126 -33 -259
v-8q0 -91 14 -182.5t36 -137.5q3 -9 5 -14t2 -7v-2q-1 -1 -4 -1h-3q-6 0 -12.5 2.5t-11.5 5.5q-26 22 -48.5 92.5t-33.5 167.5q-3 30 -3 76v23q0 61 4 102q19 151 80 299q6 15 10 25.5t4 11.5h-2q-4 0 -11 -1q-12 -3 -28 -7.5t-29 -8.5q-48 -17 -86.5 -40t-55.5 -46
q-5 -5 -6 -7.5t-1 -3.5v-1q0 -1 2 -2q3 -1 3 -2l-1 -1q-1 -1 -7 -4q-7 -3 -11 -3q-5 0 -12 2q-8 2 -10 5t-2 10v3q0 8 5 17q6 10 22 25q54 48 144 79q24 8 49.5 13t41.5 5h11l21 40q76 147 177 244q101 96 188 96q18 0 35 -4q37 -8 61 -33q30 -30 43 -82q9 -32 12 -60t3 -81
q0 -57 -4 -101t-15 -123q-3 -25 -5 -42.5t-2 -18.5q1 -1 4 -1t10 2q12 3 27 8.5t26 11.5q33 16 57 42t61 86q7 11 10.5 15.5t6 5.5t8.5 1q10 0 17 -6l7 -5l-5 -15q-6 -17 -19 -39.5t-25 -38.5q-28 -33 -73.5 -57.5t-95.5 -32.5q-9 -1 -15 -2t-6 -2q-1 -1 -5 -25.5
t-9.5 -60.5t-10.5 -72t-9 -60q-16 -118 -23 -196.5t-7 -152.5q0 -59 3.5 -97.5t12.5 -75.5q11 -40 29 -69.5t32 -29.5q17 1 44.5 25.5t50.5 57.5q33 52 68.5 137t62.5 179q16 59 35 137.5t32 138.5q2 10 10.5 12.5t13.5 2.5t10 -2q8 -4 8 -14v-2q-12 -76 -35.5 -185
t-47.5 -191q-22 -75 -54 -147.5t-61 -112.5q-48 -63 -110 -75q-18 -3 -42 -3q-23 0 -38 4zM613 936q16 82 27 162.5t14 130.5v17q0 118 -39 157q-7 6 -16 6h-3q-11 -2 -36 -14q-138 -73 -259 -296l-18 -34l14 -2q23 -3 53.5 -12t49.5 -17q10 -5 28.5 -16.5t36.5 -24.5
q42 -29 66 -43.5t47 -24.5q12 -5 20 -9t9 -4t2.5 7t3.5 17z" />
    <glyph glyph-name="B" unicode="B" horiz-adv-x="1171" 
d="M396 5q-83 17 -97 71q-3 10 -6 13.5t-10 6.5q-35 13 -44 151q-3 33 -3 95q0 30 1 68q1 112 6 195q2 30 3.5 63.5t2.5 55.5q7 222 63 389q8 27 14 41t12.5 20t17.5 10q9 5 16 6t14 1t16 -1q35 -1 48.5 -10t13.5 -32q0 -4 -0.5 -10.5t-2.5 -19t-6.5 -36.5t-11.5 -64
t-17 -100q-19 -106 -28 -161t-12.5 -94.5t-6.5 -96.5q-2 -40 -4 -107t-3 -110.5t-1 -61.5v-24l1 -15l25 19q24 18 64 38t76 33q75 27 240 45l42 5l15 33q56 118 56 198q0 34 -10 61q-22 66 -79 86q-28 8 -59 8q-13 0 -26 -1q-34 -4 -76 -16.5t-76 -27.5q-19 -9 -37 -9
q-13 0 -25 5q-10 4 -12 6.5t-2 4.5q0 4 4 10q5 9 18 27q7 10 23.5 30.5t31.5 38.5t18 22q3 2 15.5 16.5t27.5 31.5t24 28q39 47 76.5 105.5t58.5 104.5q41 89 41 149q0 52 -32 82q-14 14 -31 21.5t-44 10.5q-14 2 -29 2q-64 0 -151 -32q-107 -39 -220 -114
q-116 -80 -209 -179t-126 -180q-8 -20 -8 -31q0 -10 6 -12q4 -1 4 -3l-1 -1q-3 -2 -12 -2q-12 0 -18 6q-4 4 -4.5 7.5t-0.5 7.5v11q7 79 138 216q215 214 460 299q84 26 155 26q16 0 31 -1q85 -7 132 -52q45 -44 45 -119q0 -51 -21 -116q-60 -177 -240 -341q-12 -10 -20 -17
t-8 -8q1 0 10 2t23 5q32 6 60 7.5t41 1.5q21 0 38 -2q83 -12 133 -60q71 -65 71 -163q0 -42 -13 -90q-3 -12 -6.5 -24t-6.5 -19q-2 -7 -3 -12l-2 -5h1q3 0 12 4q10 5 25.5 13.5t30 17.5t23.5 16q18 15 46 43.5t51.5 56.5t28.5 38q3 7 8.5 9t9.5 2q3 0 6 -1q7 -1 11 -7
q1 -1 1 -4q0 -5 -5 -14q-7 -13 -29 -42q-42 -55 -71.5 -84.5t-59.5 -45.5q-12 -6 -31.5 -14.5t-38 -15.5t-27.5 -10q-4 0 -7 -3t-7 -10t-10 -20q-47 -96 -138 -187q-126 -127 -248 -154q-35 -8 -60 -8.5t-31 -0.5q-36 0 -62 5zM477 56q65 19 143.5 83.5t138.5 148.5
q10 15 19.5 30t15 25t5.5 11q-1 1 -5 1q-5 0 -13 -1q-16 -2 -40.5 -5t-50.5 -7q-182 -29 -268 -121q-14 -16 -26.5 -38t-14.5 -38q-1 -5 -1 -8v-2q1 -4 5 -7t5 -4t1 -2l-1 -3q-1 -2 -3 -7q-4 -7 -4 -13v-2q1 -7 9 -18q18 -28 53 -28q15 0 32 5z" />
    <glyph glyph-name="C" unicode="C" horiz-adv-x="672" 
d="M267 1q-8 1 -20.5 3.5t-23.5 5.5q-129 36 -200 194q-73 169 -73 390v34q6 243 95 476q67 172 155 256q66 66 142 74q12 1 24 1q53 0 98 -25q56 -30 75 -86q6 -20 6.5 -38.5t0.5 -24.5q0 -24 -3 -46q-10 -54 -26 -88.5t-28 -34.5q-2 0 -4 1t-2 20q0 18 1 43.5t3 50.5v14
q0 26 -5 55q-8 38 -21 61q-8 14 -25.5 29.5t-32.5 23.5q-19 9 -34 9h-6q-19 -1 -41 -16q-86 -56 -156 -198q-87 -178 -119 -431q-3 -28 -3.5 -68.5t-0.5 -67.5v-54q0 -54 3 -80q19 -149 63 -257.5t106 -156.5q53 -38 96 -38q13 0 34.5 5.5t37.5 13.5q82 43 150 144
q65 93 136 343q9 31 16 53.5t9 26.5q3 4 6 5t7 1h4q11 -1 11 -4q-10 -48 -27.5 -120.5t-28.5 -106.5q-17 -52 -43 -110.5t-50 -98.5q-68 -111 -150 -155q-22 -12 -40 -18t-41 -9q-21 -3 -31 -3h-14q-13 0 -30 2z" />
    <glyph glyph-name="D" unicode="D" horiz-adv-x="879" 
d="M37 211q15 89 81 165q54 62 142 102.5t188 49.5q12 1 25 2q19 2 30 3l22 2l4 13q7 26 18 73.5t19 87.5q41 210 41 421v24q0 168 -23 213q-16 40 -54 40q-27 0 -66 -20q-62 -31 -130 -109t-116 -173q-70 -141 -100 -351q-10 -62 -12 -91.5t-2 -59.5q0 -20 1 -43
q1 -35 0.5 -63t-0.5 -37q-2 -19 -9 -24.5t-27 -5.5q-17 0 -25.5 5.5t-15.5 20.5q-21 50 -43 168.5t-32 236.5q-3 50 -3 127v40q0 104 5 163q18 199 52 224q7 5 30 7h8q36 0 43 -18q2 -2 2.5 -15.5t0.5 -28.5q0 -14 -1 -35q0 -41 -2 -114q-2 -103 -2 -166q0 -64 2 -117
q1 -41 2 -73t1 -38q0 -5 0.5 -8t1.5 -3q1 2 4.5 14.5t7.5 30.5q31 142 83 249q56 114 127.5 199t140.5 116q44 19 91 19t81 -19q69 -36 92 -193q6 -43 8.5 -83.5t2.5 -108.5q0 -258 -63 -484v-6h1q2 0 7 1q85 26 121 66.5t61 93.5q13 27 30 57q9 14 17 17t11 3q6 0 10 -4
q3 -3 3 -9q0 -7 -5 -19q-34 -89 -89.5 -149.5t-156.5 -80.5l-19 -4l-10 -32q-64 -191 -171 -325q-16 -20 -43.5 -48t-43.5 -42q-58 -45 -104 -54t-70 -9q-38 0 -73 12q-57 19 -83.5 61.5t-26.5 93.5q0 20 3 42zM340 142q86 101 160 316q7 19 11 31.5t4 13.5t-9 1t-23 -1
t-28 -3q-127 -20 -214 -84t-118 -160q-8 -27 -8 -58q0 -24 5 -50q10 -60 52 -91q17 -9 35 -9q24 0 49 17q45 30 84 77z" />
    <glyph glyph-name="E" unicode="E" horiz-adv-x="616" 
d="M164 -15q-97 23 -150 99q-38 54 -52 132q-12 57 -12 115q0 86 26 175q47 168 155 209q9 4 19 5t29 1q27 0 48.5 -4.5t46.5 -16.5q8 -3 13.5 -5t6.5 -2q0 1 -7 12.5t-18 28.5q-25 39 -38 60t-20 34l-14 26q-13 27 -27.5 63t-22.5 63q-18 61 -18 122q0 53 14 107
q7 29 14.5 50t20.5 46q76 148 209 148h12q68 -2 118 -56q35 -36 55 -75.5t20 -70.5v-3q0 -18 -2 -25t-9 -7q-3 0 -4.5 1.5t-3 6t-3.5 15.5q-13 76 -86 142q-27 25 -47 35q-10 5 -15.5 7t-9.5 2.5t-8 0.5t-9 -1q-67 -3 -117 -105q-45 -92 -46 -202q0 -45 6.5 -83.5
t23.5 -89.5q15 -49 32.5 -87.5t56.5 -109.5q51 -91 51 -112q-2 -17 -32 -17q-27 0 -43 24q-3 5 -6 8.5t-4 3.5q-2 0 -14 5t-29 13q-17 7 -35 13.5t-28 8.5q-15 4 -25 4q-6 0 -11 -1q-13 -5 -32 -25q-12 -13 -20 -23.5t-16 -26.5q-34 -69 -52 -183q-3 -26 -3 -68v-22
q0 -57 5 -90q5 -29 14 -63.5t18 -59.5q39 -95 113 -120q12 -4 16.5 -4h5.5q6 0 13 2q60 15 140 89q29 28 53.5 58.5t53.5 74.5q32 47 52.5 84.5t47.5 94.5q14 30 26.5 55t16.5 35q12 25 25 25q3 0 7 -2l7 -3l-9 -20q-15 -36 -35 -80.5t-31 -65.5q-26 -52 -71.5 -123.5
t-77.5 -112.5q-34 -42 -73.5 -75.5t-72.5 -49.5q-42 -18 -87 -18q-22 0 -45 4z" />
    <glyph glyph-name="F" unicode="F" horiz-adv-x="839" 
d="M346 2q-109 20 -161 229q-28 108 -28 271v42l1 99l-10 10q-3 5 -6 9t-3 5q0 3 5.5 6t11.5 3q2 0 4 0.5t2 1.5q0 5 3.5 39t8.5 72.5t8 62.5q23 154 60.5 297t76.5 223l10 19l-7 2q-4 1 -10 1q-9 0 -23 -2q-24 -2 -49 -7q-114 -26 -211 -106q-21 -16 -34.5 -32.5
t-16.5 -25.5q-2 -11 -11 -11q-3 0 -8 2q-9 5 -9 15q0 13 16 35q29 38 88 79q79 51 170 71q15 3 33 4.5t46 2.5q22 0 36.5 1t16.5 3q12 9 25 10t17 1q15 0 26 -5q5 -2 7 -4t2.5 -5.5t0.5 -11.5l1 -17l17 -9q7 -4 22.5 -14t31.5 -22q47 -33 75.5 -48.5t64.5 -27.5
q28 -9 45 -11.5t35 -2.5h12q48 2 94.5 17t139.5 59q26 12 38 16.5t17 4.5h2q10 -1 10 -4q-1 -4 -18.5 -14t-54.5 -28q-60 -31 -91.5 -43t-65.5 -19q-21 -5 -38 -6.5t-51 -1.5q-24 0 -37.5 0.5t-23 2t-20.5 4.5q-95 24 -177 83q-17 11 -28.5 19t-12.5 8t-10.5 -28.5
t-21.5 -66.5t-21 -70q-54 -188 -83 -387q-4 -28 -8.5 -64.5t-7 -61t-2.5 -30.5v-3q2 -2 20.5 -6.5t40.5 -9t36 -6.5q21 -2 55 -2q66 0 180 8q45 4 58.5 4h17.5q10 0 12 -1q6 -3 6 -5q0 -3 -8 -6q-14 -4 -63 -9q-152 -16 -190.5 -16h-42.5q-67 0 -118 15q-2 1 -4 1t-3 -1
t-1 -5t4.5 -9.5t16.5 -14.5q120 -100 164 -184q43 -86 43 -204q-3 -140 -65 -179q-25 -13 -54 -13q-13 0 -26 2zM385 37q10 8 20.5 26t17.5 38q15 51 15 107q0 25 -3 52q-10 85 -48 151q-14 24 -33.5 47.5t-53.5 56.5l-39 39v-97q0 -245 63 -369q6 -12 16 -25t19.5 -22.5
t12.5 -9.5q2 0 5.5 1.5t7.5 4.5z" />
    <glyph glyph-name="G" unicode="G" horiz-adv-x="794" 
d="M113 -130q-66 10 -109 54q-34 34 -48 83q-3 9 -4.5 17.5t-1.5 21v34.5v15q0 30 3 51q4 25 15 58q54 168 226 250q44 22 89.5 34t122.5 22q41 5 59 8.5t19 5.5q3 6 13.5 64.5t21.5 132.5t17 125q2 23 3 51.5t1 45.5q0 18 -1 35q-1 34 -3 46l-4 16l-9 -8q-9 -8 -28.5 -41.5
t-55.5 -103.5q-32 -60 -52.5 -95.5t-39.5 -63.5q-62 -93 -118 -119l-24 -12h-36q-18 0 -26.5 0.5t-14.5 2.5t-15 6q-72 31 -92 186q-2 17 -2.5 43.5t-0.5 43.5v36q1 36 3 56q29 233 131 398q93 147 226 188q24 6 45 7t28 1q26 0 46 -3q59 -13 83 -52q5 -8 6 -14t1 -14v-18
q0 -9 -1 -15q-2 -9 -9 -23q-6 -13 -9.5 -18t-7.5 -5h-2q-4 0 -7 4t-5 16q-4 18 -11.5 37.5t-14.5 30.5q-15 19 -34 27.5t-34 8.5q-5 0 -10 -1q-41 -8 -88.5 -43.5t-86.5 -87.5q-54 -69 -96 -181q-65 -176 -65 -363q0 -35 2 -69q12 -130 57 -157q5 -2 7.5 -2.5t3.5 -0.5h3
q4 0 10 3q19 6 36.5 19t43.5 39q76 74 158 222q46 82 67.5 113.5t32.5 32.5q6 2 12 2q13 0 24 -11q24 -29 34 -102q4 -31 4 -78q0 -31 -2 -70q-3 -96 -13 -187l-3 -31.5t-1 -14.5v-4h1q1 0 5 1q5 2 13 6q87 43 166 156q18 25 28.5 39t16 20.5t9.5 8t9 1.5t8.5 -1t4.5 -2
q1 0 1 -1q0 -10 -47 -79q-25 -37 -42.5 -58.5t-39.5 -39.5q-59 -51 -122 -75l-17 -7l-8 -46q-36 -218 -108 -366q-45 -91 -106 -150q-66 -67 -146 -86q-21 -5 -42 -6t-33 -1q-11 0 -20 1zM181 -91q62 25 113 92q94 117 153 351q6 24 13.5 56t13 58t5.5 29q0 2 -4 2
q-2 0 -6 -1q-5 0 -23 -2.5t-41 -6.5q-64 -8 -101.5 -18t-75.5 -30q-172 -84 -214 -257q-8 -33 -8.5 -57t-0.5 -30q0 -33 5 -60q11 -52 40 -87q11 -12 27.5 -23.5t31.5 -17.5q13 -4 29 -4h7q21 0 36 6z" />
    <glyph glyph-name="H" unicode="H" horiz-adv-x="1019" 
d="M595 553q2 20 2.5 34t0.5 15q-1 0 -9.5 -2t-19.5 -6q-55 -17 -133 -30q-16 -2 -26.5 -4t-11.5 -3l-1 -12q-2 -12 -3 -30q-13 -147 -52.5 -260t-97.5 -171q-60 -57 -131 -57q-14 0 -28 2q-115 20 -134 171q-1 12 -1 24q0 74 36 149q42 89 112 138q50 33 143 49q3 0 7 1
q9 2 16.5 3t9.5 2q3 0 4 1.5t2 6.5t1 16v32q0 104 -11 219t-30 202q-34 157 -79 206q-9 8 -9 14t13 9q9 2 18 2q20 0 43 -11q34 -16 59 -47q52 -68 83 -218.5t32 -335.5q0 -47 0.5 -63.5t2.5 -16.5q5 0 26.5 3.5t44.5 8t37 8.5q15 3 35 9.5t36.5 12t18.5 7.5l2 14q2 14 5 34
q33 250 95.5 447t132.5 268q17 16 32 24.5t34 12.5q17 3 32 3q42 0 67 -24q34 -33 41 -94q2 -22 2 -46q0 -86 -32 -184q-40 -125 -112 -234t-155 -169q-12 -8 -21.5 -15t-11.5 -9q-3 -1 -4.5 -6.5t-3.5 -17.5t-4 -34q-7 -60 -9.5 -109.5t-2.5 -114.5q0 -84 6 -129t23 -95
q22 -70 46.5 -99.5t49.5 -29.5h3q32 3 62.5 46t56.5 115q11 32 20 70.5t18 96.5q11 64 20 110q17 77 35 77h1q12 -2 12 -43q0 -23 -4 -60q-7 -51 -14.5 -87.5t-23.5 -90.5q-18 -58 -28.5 -89t-21.5 -52q-25 -50 -63 -82.5t-82 -36.5h-2q-75 0 -118 64q-44 64 -64.5 160
t-23.5 164.5t-3 104.5t2 62zM785 756q67 67 123 167t71.5 176t15.5 116q0 64 -21 124q-15 40 -32 40h-1q-18 -2 -41 -41q-51 -88 -99.5 -247t-79.5 -342q-4 -23 -6 -39l-3 -16q0 -1 1 -1q2 0 10 7q12 9 28.5 24t33.5 32zM129 70q53 37 93.5 152.5t52.5 266.5q2 21 2.5 31.5
t0.5 14.5t-1 4h-2q-4 0 -18 -2q-17 -4 -38 -9.5t-34 -10.5q-66 -25 -112.5 -92t-59.5 -154q-2 -19 -2 -36q0 -45 14 -85q19 -55 58 -79q14 -8 19.5 -8h6.5q9 0 20 7z" />
    <glyph glyph-name="I" unicode="I" horiz-adv-x="520" 
d="M16 2q-16 4 -26.5 11t-10.5 14q0 6 8 12.5t22 10.5q8 2 29.5 6t46.5 8q13 2 24 4q20 3 34.5 5t23.5 3.5t13.5 2.5t6.5 2t2 2v2q-1 1 -1 2q-4 11 -8.5 53t-6.5 87q-2 26 -2 116v204q2 203 2 312t-2 123q-1 8 -1 23q0 22 2 61q3 64 8 137.5t11 121.5q2 19 3.5 31.5
t1.5 13.5h-1q-4 0 -16 -2q-15 -2 -37 -5.5t-42.5 -7t-33.5 -6.5q-41 -8 -67 -8q-36 0 -47 14q-2 3 -2 5v2q0 2 4 6q5 6 22 10t60 9q69 7 105 11.5t50 8t16 6.5q11 12 27.5 14t24.5 2q17 0 34 -4q7 -3 12.5 -3h9.5h11q12 0 35 3q91 9 141 9h17q52 -2 69 -17l7 -6l-7 -6
q-5 -4 -8.5 -4.5t-7.5 -0.5h-9q-24 3 -52 3q-17 0 -35 -1q-49 -2 -131 -13l-27 -3v-53q-3 -180 -24 -420q-5 -51 -7 -92t-3.5 -102.5t-1.5 -173.5q-1 -81 -2 -171t-2 -148q0 -27 -0.5 -47.5t-0.5 -34.5v-23.5t0.5 -14.5t1 -7.5t1.5 -2.5h2q14 3 40.5 5t46.5 2h19q18 0 28 -1
t15.5 -2.5t11.5 -5.5q15 -7 15 -17q0 -6 -6 -14q-4 -9 -11 -12t-23 -3q-12 0 -19 4.5t-7 9.5v2q1 2 1 3q0 2 -1 2q-1 1 -8 1q-9 0 -35.5 -4t-50.5 -9t-29 -8q-3 -1 -10.5 -3t-16.5 -2q-38 -3 -113 -26q-40 -13 -58.5 -15.5t-28.5 -2.5q-13 0 -26 2z" />
    <glyph glyph-name="J" unicode="J" horiz-adv-x="827" 
d="M144 -80q-86 15 -133 78t-54 117.5t-7 78.5q0 60 19 118q10 26 28.5 61.5t34.5 58.5q19 26 52 59.5t65 59.5q29 23 72.5 52t85.5 54q29 17 92.5 49t110.5 53l17 9l-1 11q-1 5 -1.5 16.5t-1.5 24.5q-5 84 -20.5 213t-31.5 228q-17 94 -35.5 155.5t-31.5 61.5q-5 0 -36 -5
t-65 -10.5t-53 -8.5q-16 -4 -53 -12.5t-76 -18.5q-40 -11 -69 -17.5t-32 -6.5q-5 0 -11.5 2t-11 5t-4.5 5q0 10 59 28t142.5 35t164.5 26q12 2 21.5 4t11.5 3q11 9 33 9q8 0 16 -1q10 -1 31 -1h43q59 1 113 1h53q78 0 94 -3q27 -7 27 -16q0 -1 -1 -3q-4 -7 -13 -10.5
t-16 -3.5h-3q-7 2 -8 4v2q0 3 4 5q3 1 3 3q0 3 -20 4q-19 1 -48 1h-30q-49 0 -99 -5q-24 -2 -41 -3.5t-19 -2.5q-1 0 -1 -2q0 -3 6 -12q33 -47 57 -163q40 -192 50 -344t10 -238q0 -104 -9 -194q-25 -219 -101 -372t-188 -211q-19 -10 -44 -18t-46 -11q-22 -4 -52 -4t-49 2z
M229 -50q62 15 114 68q59 62 104 171t65 239q9 65 13.5 135t4.5 107q0 22 -1 38l-2 25l-67 -35q-79 -40 -126.5 -68t-93.5 -60q-105 -76 -162 -153q-74 -106 -74 -220q1 -94 39.5 -161t101.5 -86q16 -4 41 -4t43 4z" />
    <glyph glyph-name="K" unicode="K" horiz-adv-x="782" 
d="M464 3q-115 29 -174 170q-17 42 -28.5 94.5t-22.5 135.5q-25 189 -63 235q-4 5 -5 5h-2q-2 0 -5 -2t-11 -7t-19 -11q-4 -3 -8 -5q-13 -8 -24 -15.5t-15 -10.5l-9 -8l4 -94q2 -70 6.5 -161.5t8.5 -167.5t5 -98q2 -13 2 -20t-1 -10.5t-4 -5.5q-3 -4 -11.5 -5.5t-15.5 -1.5
h-7q-11 0 -18 2q-25 8 -39.5 82t-24.5 254q-12 187 -18 381q-1 42 -3 86t-3 69q-5 98 -7 144t-2 108q0 79 3 149t6 89q7 35 56 35h10q29 0 38.5 -13t13.5 -54q2 -22 2 -89t-1.5 -145t-4.5 -133q-1 -36 -1 -84.5v-80.5v-62q1 -61 3 -86l2 -19l14 8q12 8 30.5 14.5t27.5 6.5
q6 0 42.5 28t82.5 68q144 128 281 336q111 164 150 278q6 15 11 26t7 13q5 3 11 3h3q8 -1 14 -6q5 -6 5 -18q0 -49 -77 -196q-85 -162 -198 -298q-29 -34 -77 -82.5t-80 -75.5q-13 -11 -36 -28.5t-44.5 -33t-29.5 -21.5q-2 -1 -2 -2v-1q0 -1 5 -4q3 -2 10.5 -9t14.5 -14
q54 -48 88 -251q23 -136 49 -207.5t66 -111.5q34 -35 64 -42q4 -1 8 -1q23 0 56 17q97 50 155 217q12 39 30.5 113t33 143.5t14.5 86.5q0 8 2.5 10t5.5 2q4 0 8 -1q10 0 10 -22v-4q-1 -26 -13 -93q-14 -77 -33.5 -161.5t-32.5 -122.5q-10 -28 -27.5 -62t-34.5 -58
q-48 -68 -118 -89q-22 -7 -41 -7.5t-25 -0.5q-24 0 -43 3z" />
    <glyph glyph-name="L" unicode="L" horiz-adv-x="752" 
d="M20 -31q-68 28 -70 122q0 61 43 105q52 50 159 59l25 2l3 17q14 73 42 383q3 31 7.5 69.5t8.5 70.5t6 44l1 9h-33q-63 0 -112 16.5t-49 36.5q0 14 19 14h2q7 0 7 -5q0 -12 31 -24t76 -16q14 -2 27.5 -2h20.5l15 2l7 37q7 42 22 101.5t29 102.5q66 209 167 301
q19 18 36.5 29t38.5 19q12 4 22 5.5t29 1.5q27 0 43.5 -4t33.5 -15q47 -25 47 -97v-10q0 -47 -26 -110q-40 -99 -116.5 -189t-160.5 -139q-27 -14 -29 -20q0 -4 -4.5 -38.5t-10.5 -84.5q-24 -193 -41.5 -302t-37.5 -179q-3 -13 -5.5 -22.5t-2.5 -11.5q0 -4 96 -17
q69 -9 104.5 -13.5t55 -4.5h31.5q24 0 57 1q61 1 92.5 3t57.5 6h6q12 0 12 -6q0 -2 -1 -5q-1 -2 -4 -4.5t-6 -3.5q-29 -9 -168 -14q-43 -2 -79 -2q-24 0 -44 1q-51 3 -140 14q-26 3 -46 5.5t-25 2.5h-11l-11 -29q-66 -174 -164 -210q-17 -5 -32 -5.5t-19 -0.5q-20 0 -32 4z
M422 937q66 46 126 115.5t94 138.5q38 80 38 143q0 10 -1 19q-6 69 -60 84q-3 1 -7 1q-19 0 -44 -25q-69 -69 -119 -246q-27 -94 -42 -185q-3 -15 -5 -28q-3 -19 -4 -24v-5q0 -2 1 -2t7.5 4t15.5 10zM75 1q52 42 87 184q3 13 5 22.5t2 10.5q0 5 -10 5q-9 0 -26 -4
q-76 -17 -102.5 -56t-26.5 -75q0 -22 8 -46q10 -31 28 -45q7 -6 13 -6h2q7 1 20 10z" />
    <glyph glyph-name="M" unicode="M" horiz-adv-x="1476" 
d="M1123 3q-73 18 -106 131q-25 80 -25 181v7q0 66 17 148q17 88 65 253q44 153 65.5 251.5t29.5 186.5q4 40 4 72q0 22 -2 41q-4 48 -18 61q-2 2 -3.5 2h-2.5q-2 0 -5 -1l-14 -7q-89 -45 -192 -183q-156 -212 -222 -466q-5 -18 -9 -31.5t-6 -16.5q-12 -10 -26.5 -11
t-16.5 -1q-24 0 -41 8q-7 3 -11 6.5t-6 9.5q-9 15 -13.5 86.5t-6.5 223.5q-3 214 -12 306.5t-30 123.5l-7 11l-10 -5q-14 -9 -39 -34.5t-42 -50.5q-105 -150 -156 -406q-17 -83 -23.5 -150t-6.5 -147v-23q0 -76 2 -121.5t10 -120.5q4 -35 4.5 -51t-3 -22t-12.5 -9
q-16 -8 -38 -8h-5q-25 1 -43 11q-32 17 -69 118q-32 85 -56 181t-50 239q-14 75 -26.5 151.5t-14.5 97.5q-1 9 -1 14q0 4 1.5 7t5.5 6q11 13 45 13h9q30 0 48 -15t33 -63t36 -147q12 -55 27 -122.5t26.5 -119t13.5 -60.5l4 -13v16q1 45 10 122.5t20 141.5q55 317 164 498
q36 62 69 86.5t79 24.5q72 0 104 -54q57 -78 68 -427q1 -32 1.5 -57t0.5 -31v-12l23 44q45 86 97 164q148 220 250 286q37 22 73 22q10 0 20 -2q48 -7 66 -46q22 -49 22 -139q0 -83 -19 -203q-9 -49 -23 -109t-48 -189q-55 -201 -64.5 -283t-9.5 -126q0 -60 11 -111
q11 -53 28 -86t30 -33h2q7 2 21 16t29.5 32t26.5 34q40 60 79.5 156.5t95.5 270.5q15 48 28 83q15 43 23 71q6 18 14.5 20t11.5 2q9 0 16 -6q8 -5 8 -15q0 -3 -1 -6q-13 -46 -40 -140q-26 -92 -42.5 -142.5t-39.5 -109.5q-57 -151 -100 -216q-7 -11 -18 -24.5t-22 -23.5
q-17 -18 -32 -27t-33 -14q-14 -3 -38 -3q-23 0 -37 3z" />
    <glyph glyph-name="N" unicode="N" horiz-adv-x="993" 
d="M650 3q-68 23 -89 144q-5 33 -5 94v21q0 77 6 131q8 72 24 155.5t51 244.5q69 312 81 428q4 35 4 60v34q0 25 -2 38q-4 14 -10.5 26.5t-11.5 17.5q-3 1 -4.5 2t-3.5 1q-1 0 -3 -1q-4 -1 -11 -3q-54 -18 -128 -101t-145 -204q-18 -32 -41 -78.5t-40 -86.5
q-54 -129 -102 -292.5t-70 -294.5q-3 -20 -6.5 -35t-4.5 -17q-12 -13 -27 -13h-17q-25 0 -44 11q-14 8 -26 43t-28 116q-47 227 -47 493v11q0 92 2.5 132.5t8.5 58.5q3 8 6.5 12t13.5 9q8 3 13 5t13 2.5t24 0.5t24 -0.5t13 -2t12 -5.5q15 -7 19 -15q7 -14 10 -77
q5 -88 8.5 -153t11.5 -190q2 -37 4 -78t3 -67q0 -25 1 -44.5t2 -24.5v-2q1 0 1 1q2 2 5.5 11.5t10 27.5t16.5 48q117 352 206 512q133 244 240 304q43 21 84 21q35 0 68 -15q11 -6 23 -17.5t19 -22.5q24 -48 24 -140q0 -29 -2 -62q-5 -68 -22.5 -164t-55.5 -277
q-65 -305 -85 -441q-12 -84 -12 -143q0 -73 18 -108q6 -13 11 -13h1q5 0 20 15q64 67 136 236q34 82 105 278q15 40 24.5 66.5t15.5 42.5t10 24.5t6.5 12.5t4.5 6q4 3 6.5 4t5.5 1q2 0 5 -1q11 -1 13 -4t2 -7q0 -3 -2 -9q-7 -28 -34 -106.5t-61 -172t-62 -165.5
q-82 -199 -161 -244q-7 -5 -15 -6.5t-23 -1.5h-9q-17 0 -26 3z" />
    <glyph glyph-name="O" unicode="O" horiz-adv-x="955" 
d="M241 2q-62 7 -119.5 39t-91.5 79q-72 104 -76 210.5t-4 127.5q0 176 52 387q47 191 127 312q52 79 101 87q5 1 8 2t3 2q0 2 12.5 18t28 35.5t27.5 32.5q75 80 127 90t72 10q60 0 118 -38q22 -15 47 -39.5t41 -47.5q62 -90 85 -215q3 -15 4 -29t1.5 -33.5t0.5 -54.5
q0 -66 -3.5 -106t-15.5 -103q-60 -313 -219 -560q-39 -59 -85 -105q-89 -93 -189 -100q-12 -2 -20.5 -2.5t-9.5 -0.5l-6 1q-7 0 -16 1zM312 58q78 38 161 147.5t151 265.5q77 179 99.5 309t22.5 208q0 68 -12 127q-36 161 -139 247q-21 16 -43 27t-37 13h-2q-45 0 -113 -70
q-39 -39 -69 -87t-84 -159q-33 -67 -45 -94t-12 -31q1 -2 1 -4t-1 -3q-1 -2 -5 -4q-3 0 -5 -2t-4.5 -8.5t-6.5 -20t-11 -37.5q-21 -76 -37.5 -172.5t-22.5 -184.5q-3 -37 -3 -83q0 -22 1 -47q2 -73 8 -115q15 -103 51 -155q23 -33 58 -55t61 -22h5q6 0 15 3t18 7z" />
    <glyph glyph-name="P" unicode="P" horiz-adv-x="791" 
d="M96 -84q-12 2 -18.5 7.5t-9.5 17.5q-33 123 -66 407.5t-49 577.5q-3 70 -3 152t3 133q7 98 17.5 140t30.5 51q21 9 49 9q27 0 49 -10h1q7 -3 10.5 -7t5 -14t1 -30.5t-1.5 -57.5v-5q-2 -73 -2 -173v-70q1 -145 6 -247q2 -41 4 -68.5t3 -29.5q1 0 3 5t4 15q18 83 55 192.5
t75 194.5q106 225 213 347q61 67 128 67q10 0 21 -2q62 -8 90 -69q16 -32 21.5 -68.5t5.5 -82.5q0 -16 -1 -33q-11 -276 -113 -479q-94 -175 -240 -228q-65 -22 -107 -22q-20 0 -34 5q-42 15 -42 50v5q3 40 50 76t133 44q32 1 62 8.5t50 32.5q16 22 29 51t22 52
q46 121 71 281q16 109 16 184q0 110 -34 151l-8 9l-12 -5q-73 -41 -164 -173q-197 -299 -268 -709q-1 -3 -1 -7q-8 -42 -10 -64t-2 -44v-15q1 -32 5 -94q0 -4 1 -9q8 -128 10.5 -195.5t2.5 -118.5v-34q0 -32 -1 -50.5t-2.5 -27.5t-4.5 -12.5t-9 -6.5q-9 -4 -17.5 -4.5
t-12.5 -0.5q-8 0 -15 1z" />
    <glyph glyph-name="Q" unicode="Q" horiz-adv-x="971" 
d="M198 4q-145 29 -208 186q-40 103 -40 246q0 73 10 157q24 186 87.5 348t146.5 250q41 41 78 49q4 1 8 4t11.5 12.5t20.5 28.5q28 41 48.5 64.5t39.5 38.5q52 45 133 45q55 0 97 -22q133 -69 167 -290q3 -19 3.5 -61t0 -86.5t-3.5 -70.5q-13 -148 -75 -331
q-75 -226 -161 -355q-5 -6 -6.5 -9.5t-1.5 -4.5t2 -1t16 -4.5t33 -11.5q183 -68 212 -108q5 -7 5 -9v-4t-1 -5q-4 -7 -14 -12t-18 -7t-12 -2q-6 0 -11 2q-4 2 -4 4q0 4 9 9q4 2 7 5t3 5q0 9 -35.5 29.5t-85.5 41.5q-9 4 -28.5 11t-40.5 14.5t-36.5 13.5t-16.5 6l-7 -9
q-7 -10 -18 -23q-66 -90 -132 -120q-29 -15 -54 -20.5t-63 -6.5h-17q-31 0 -48 3zM502 258q22 34 38 63t38 74q113 235 150 473q12 80 12 150q0 110 -30 196q-57 164 -166 186h-6q-37 0 -94 -64q-44 -49 -69.5 -82.5t-47.5 -70.5q-165 -271 -206 -621q-3 -23 -4 -53.5
t-1 -92.5q0 -43 0.5 -73.5t0.5 -31.5q1 -1 14 -3.5t33 -5.5q162 -27 283 -65q13 -4 22.5 -6.5t10.5 -2.5t7 8.5t15 21.5zM286 52q72 18 157 125q9 10 13.5 17t4.5 8q-5 4 -37.5 11.5t-77.5 16t-86 14.5q-13 2 -35.5 5t-45 5.5t-38.5 4t-17 1.5v-2q0 -2 1 -8q2 -9 5 -21.5
t6.5 -25t6.5 -21.5q21 -65 61 -103q11 -11 20.5 -17t23.5 -10q10 -4 18 -4q7 0 20 4z" />
    <glyph glyph-name="R" unicode="R" horiz-adv-x="825" 
d="M648 -86q-20 4 -44 12.5t-42 18.5q-70 43 -126 151q-21 41 -36 86.5t-34 129.5q-10 44 -16 69.5t-11 43t-11 37.5q-15 48 -33.5 90t-31.5 58l-7 8l-44 -10q-26 -6 -36 -9.5t-13 -6.5q-8 -9 -27 -9q-18 0 -29 9q-6 5 -6 10t5 10q3 2 6.5 6.5t5.5 8.5q7 10 26.5 22.5
t40.5 19.5q20 7 52 10q20 2 31 5t26 9q159 68 256 194q73 94 123.5 220.5t57.5 234.5v14q0 95 -52 124q-13 6 -30 6q-27 0 -65 -15q-62 -23 -138 -80q-249 -192 -366 -497q-9 -23 -11 -45t-2 -41q0 -28 2 -69q5 -155 21 -324t36 -277q5 -26 8 -39t6 -18t8 -6q8 -3 12.5 -6.5
t4.5 -7.5t-8.5 -10.5t-17.5 -9.5q-4 -2 -10.5 -2h-10.5h-9q-33 1 -49 20q-36 40 -62 209t-39 439q-2 38 -4 74.5t-3 55.5q-2 44 -2 98v37q1 76 5 139.5t11 84.5q5 16 16.5 22t34.5 6t34 -5t17 -19l7 -13v-184l20 41q102 201 280 349q154 129 282 129q15 0 30 -2
q117 -14 141 -123q5 -24 5 -63q0 -40 -5 -75q-32 -186 -135 -347q-115 -175 -303 -250l-33 -13l13 -11q28 -25 59 -90q21 -43 36 -89t35 -127q28 -116 45.5 -172t36.5 -93q15 -32 32 -58t30 -39q24 -22 54 -22q26 0 55 16q13 8 30.5 24.5t28.5 32.5q10 14 17.5 18.5
t19.5 4.5q11 0 18.5 -3t7.5 -8q0 -4 -5 -14.5t-12 -22t-14 -19.5q-37 -43 -96 -59q-18 -4 -38.5 -4.5t-29.5 -0.5q-19 0 -32 1z" />
    <glyph glyph-name="S" unicode="S" horiz-adv-x="893" 
d="M200 -85q-205 32 -245 167q-5 20 -5 36.5v20.5q0 22 4 38q15 56 63 106q56 60 129.5 91.5t192.5 45.5q44 6 186 11l85 4l-1 26q-3 45 -18 90q-17 54 -54 101t-107 105q-48 40 -85.5 78t-53.5 62l-10.5 15t-6 6t-5.5 1q-9 -2 -40 -2q-30 0 -63 1t-48 4q-91 16 -131 53
q-28 27 -28 55v5q4 29 39 38q9 2 14 2t5 -2q0 -3 -5 -7t-5.5 -7t-0.5 -6v-7q13 -72 138 -97q10 -1 28.5 -2t33.5 -1h23h15q14 0 16 2q0 1 -1.5 7t-4.5 15q-18 54 -18 111q0 42 10 87q23 103 98 201q18 22 45.5 48.5t50.5 43.5q51 36 101 48t80 12q35 0 67 -10q61 -18 91 -84
q14 -34 14 -70q0 -30 -10 -62q-7 -23 -21.5 -52.5t-29.5 -53.5q-67 -100 -187 -175q-26 -15 -61 -32.5t-57 -25.5q-8 -3 -13.5 -5.5t-5.5 -3.5q0 -2 5.5 -13t12.5 -24.5t13 -22.5q11 -16 32.5 -41t34.5 -37q25 -22 61 -58t52 -53q89 -105 98 -236l2 -21l11 2q5 1 10.5 2.5
t8.5 3.5q5 2 13 2.5t15 -0.5t10 -4q1 -1 1 -3q0 -3 -4 -7q-8 -6 -21.5 -11.5t-29.5 -7.5q-6 -1 -10 -2t-4 -2q0 -10 -4.5 -39.5t-8.5 -49.5q-27 -118 -102 -216.5t-178 -153.5q-42 -21 -80 -30.5t-88 -9.5h-58zM453 1005q101 49 172 124q53 53 72.5 103t19.5 82q0 38 -18 78
q-33 64 -72 64h-5q-41 -3 -80.5 -44.5t-68.5 -87.5q-48 -75 -66.5 -148t-18.5 -124q0 -25 4 -49q1 -11 2.5 -15.5t2.5 -5t2 -0.5h3q4 1 18.5 7.5t32.5 15.5zM287 -40q60 15 124.5 68t113.5 125q71 110 84 231l1 22h-8q-7 0 -47.5 -3t-84 -6.5t-66.5 -5.5q-129 -13 -193 -36
q-131 -51 -175 -163q-5 -13 -6.5 -22.5t-1.5 -30.5q0 -26 5 -45.5t19 -41.5q33 -53 89.5 -75t98.5 -22q24 0 47 5z" />
    <glyph glyph-name="T" unicode="T" horiz-adv-x="988" 
d="M613 6q-83 19 -126 137t-56 361q-2 37 -2 83q0 31 1 67q1 88 5 149q17 201 60 391q17 77 22.5 103.5t5.5 32.5q0 2 -1 2q-4 2 -29 11t-54 18t-44 12q-57 13 -106 13h-7q-52 -1 -114 -17q-38 -9 -65.5 -20.5t-62.5 -33.5q-27 -17 -41.5 -23t-26.5 -6q-6 0 -11.5 1t-7.5 3
q-3 2 -3 3v3q1 2 4 6q12 16 40 36t58 35q118 53 252 53h19q64 -3 121.5 -15.5t165.5 -46.5q156 -52 244 -52q66 0 157.5 29t164.5 73q11 7 20 11.5t13 5.5q3 1 6 1t6 -1q6 -1 11.5 -3.5t5.5 -4.5q0 -5 -15.5 -19t-34.5 -26q-33 -22 -81 -45.5t-91 -38.5q-84 -30 -175 -30
q-63 0 -129 14l-38 7l-2 -30q-2 -28 -8.5 -77t-19.5 -138q-36 -228 -45 -375q-7 -106 -7 -201q0 -141 15 -259q15 -112 49 -149l10 -11l13 8q91 60 220 367q36 87 62.5 157t26.5 81v3q0 7 18 7h3q15 0 17 -10v-2q0 -13 -11 -50q-13 -43 -47 -132t-71.5 -179t-60.5 -136
q-44 -89 -83.5 -122.5t-91.5 -33.5h-6q-12 0 -24 1t-18 2z" />
    <glyph glyph-name="U" unicode="U" horiz-adv-x="1127" 
d="M779 -38q-141 17 -181 324q-3 22 -4 52t-1 90q0 52 1.5 104.5t3.5 89t4 40.5q1 2 2.5 10t1.5 20q2 26 4.5 53t5 46t3.5 23q1 2 2.5 8.5t2.5 13.5q0 8 2 21t3 26q2 12 3.5 23.5t2.5 15.5v2q-1 0 -2 -4q-3 -6 -8 -19q-11 -33 -24 -66.5t-18 -46.5q-3 -6 -6.5 -15.5
t-6.5 -18.5t-7 -18.5t-6 -14.5t-7 -16t-10 -23q-4 -12 -9.5 -24.5t-9.5 -20.5l-6 -14t-4 -10q-2 -7 -14 -32.5t-27 -56.5t-27 -54t-15 -25q-1 -1 -4 -7.5t-8 -14.5q-10 -21 -30.5 -53t-40 -60.5t-29.5 -38.5q-4 -3 -6 -6t-2 -5t-13 -15t-28.5 -26.5t-24.5 -20.5
q-36 -23 -89 -24q-31 0 -34 3l-4 2t-4 1q-3 0 -9 2.5t-13.5 5.5t-13 6t-6.5 4q0 1 -1.5 1.5t-2.5 0.5q-2 0 -13.5 12.5t-22.5 27.5q-8 11 -20 35.5t-19 42.5q-17 52 -28 123.5t-11 116.5v7q1 4 1 8q0 3 -1 6q0 6 -1 7q0 3 0.5 29t2 60t3.5 60.5t3 30.5q1 3 2.5 11t2.5 19
q1 14 3.5 38t5.5 45.5t4 28.5q1 4 2.5 11.5t4 23.5t6.5 44q3 16 5 28t4 15q1 3 4 18t7 36q4 20 7.5 36t5.5 21q1 5 5 19.5t9 32.5q4 17 7.5 30.5t4.5 15.5q2 2 5.5 14t8.5 29q38 128 80 169q15 14 25 18.5t28 4.5q13 0 19 -1t10 -5q12 -9 12 -19q0 -4 -2 -8l-3 -9t-3 -13
q-3 -12 -7 -27t-7.5 -27t-5.5 -15q-1 -1 -4 -12t-7 -27t-8 -32.5t-7 -26.5t-7 -26.5t-8 -32.5q-3 -15 -6 -26.5t-4 -14.5q-1 -2 -4 -18.5t-7 -37t-7 -36.5q0 -6 -1.5 -10.5t-2.5 -6.5q-1 -3 -4 -21.5t-7 -43.5q-4 -26 -7 -44.5t-4 -21.5t-3.5 -19t-5.5 -38
q-2 -22 -4.5 -40.5t-3.5 -23.5q-1 -6 -3 -24t-4 -40t-4 -46t-4 -40q-2 -31 -2 -81v-35q0 -75 4 -117q2 -15 2.5 -27t0.5 -14v-3q0 -1 1 -2q2 -1 2.5 -2.5t0.5 -2.5t-1 -3v-4q0 -3 1 -5q1 -1 2 -4t1 -5q0 -3 0.5 -7.5t1 -8t1.5 -4.5l1 -1v-2q1 -1 1.5 -2.5t1.5 -3.5
q0 -2 2 -7.5t4 -12.5q7 -24 21 -46.5t26 -29.5q2 -1 4 -1q10 0 36 16q17 11 32 24.5t33 34.5q21 25 36 43.5t33 45t49 73.5q10 16 27.5 48t35.5 67t27 54t24 53q6 14 10.5 24t5.5 11q2 3 7.5 16t11 27t7.5 20q1 4 2.5 6.5t2.5 2.5t2 1t1 2q0 2 3 11t7.5 21t8.5 21.5t6 12.5
t5.5 12t7.5 20t7 19t3 10q0 1 1.5 5.5t3.5 8.5q6 14 20 52.5t26 73.5q4 15 8 25.5t5 12.5q1 1 5.5 14t9.5 31t9.5 31.5t6.5 16.5q1 2 4 16t7 32l7 31.5t5 16.5q1 2 4.5 14t7.5 29q4 16 8.5 30.5t6.5 19.5q3 6 7 15.5t7 18.5q17 43 40 44h6q24 0 32 -14q3 -5 3.5 -14
t-0.5 -30q-1 -20 -4.5 -53t-7.5 -62.5t-6 -36.5q-1 -3 -2.5 -8.5t-2.5 -11.5q-5 -40 -10.5 -71.5t-7.5 -36.5q-1 -3 -4 -19.5t-6 -37.5q-3 -23 -6 -39t-4 -19t-3.5 -20t-6.5 -41q-3 -23 -5.5 -39.5t-2.5 -19.5q-1 -1 -1.5 -3t-1 -5.5t-1.5 -10t-2.5 -18t-3.5 -29.5
q-1 -3 -1 -7q-3 -25 -6 -44t-4 -22q-1 -2 -3 -16.5t-4 -33.5t-4 -38.5t-3 -30.5q-1 -10 -3 -24q-1 -13 -3 -22q-7 -77 -8 -137t-1 -74q0 -83 5 -132q13 -111 46 -174q11 -21 25.5 -38t24.5 -20h4q6 0 18 5q15 7 29 18q51 44 95 137q3 6 7 13q8 19 13 29q3 6 4.5 11t1.5 6
t4.5 12.5t9.5 24.5t9 21q2 5 6 16.5t8 24.5l7 21t4 11t5 13t9 26t9.5 27.5t6.5 16.5q2 3 3 6t1 5t3 12t7 23t7.5 23t4.5 14q2 3 6 15.5t9 29.5q0 2 1 4q4 15 6.5 23t3.5 12t2 6.5t2 5.5l1 1q1 4 4 13.5t6 21.5q9 33 18 46.5t22 13.5t16 -3.5t3 -8.5q0 -4 -1 -9q-1 -2 -1 -4
q-2 -8 -4.5 -20.5t-4.5 -25.5q-3 -16 -5.5 -27t-3.5 -13q-1 -1 -5 -14.5t-9 -33.5q-15 -57 -26.5 -97t-15.5 -49q-1 -4 -2.5 -7.5t-1.5 -4.5q0 -2 -3 -11t-7 -20.5t-7.5 -20.5t-4.5 -11q-2 -3 -9 -21.5t-15 -42.5q-3 -10 -11 -29.5t-15 -37t-10 -21.5q-1 -2 -4.5 -10.5
t-7.5 -18.5q-5 -10 -12.5 -25.5t-14.5 -29.5q-11 -18 -22 -33.5t-34 -42.5q-2 -2 -3.5 -3t-2.5 -1t-5.5 -3.5t-10.5 -7.5q-6 -5 -16.5 -12t-20.5 -12t-13 -5h-2q-9 -3 -22.5 -3h-19.5q-13 0 -25 1z" />
    <glyph glyph-name="V" unicode="V" horiz-adv-x="795" 
d="M219 -79q-32 7 -56 31q-20 18 -36.5 46.5t-35.5 77.5q-21 54 -37.5 114t-34.5 147q-44 217 -64 450q-5 62 -5 124.5v81.5q0 75 3 119q6 76 20.5 102t52.5 26h11q47 0 55 -32q1 -5 2.5 -31.5t2.5 -63.5q6 -207 13.5 -315t24.5 -240q53 -400 117 -549l12 -24l10 15
q28 36 60.5 115.5t95.5 262.5q54 157 88 252.5t75 201.5q12 33 29 79q25 64 45 117q24 64 59.5 154t67.5 169.5t45 111.5q14 31 21.5 42t16.5 11q7 0 12.5 -3t5.5 -8v-1q0 -7 -12 -40q-13 -37 -48.5 -129.5t-102.5 -265.5q-118 -303 -248 -744q-9 -28 -21 -67.5t-22 -72.5
q-41 -136 -72 -193t-68 -67q-16 -5 -31 -5.5t-21 -0.5q-16 0 -30 2z" />
    <glyph glyph-name="W" unicode="W" horiz-adv-x="1401" 
d="M858 2q-135 25 -216 254q-45 131 -65 292q-2 18 -4 49.5t-2 63.5l-2 72l-65 -117q-133 -240 -217.5 -352t-153.5 -140q-20 -8 -38 -8.5t-25 -0.5q-19 0 -36 4q-51 14 -71 67q-8 21 -10.5 42t-2.5 52v26q0 200 102 457q35 88 79 178.5t85 156.5q6 10 10 17t4 8l2 3
q1 3 3 6q3 4 8.5 12.5t11.5 17.5q110 172 166 220q9 8 14.5 10t16.5 2q29 0 45 -22q5 -6 5 -17q0 -7 -2 -15q-5 -21 -27.5 -66t-68.5 -125q-35 -63 -75 -142t-67 -141q-17 -37 -26 -57.5t-15 -34.5t-13 -34q-104 -262 -125 -441q-4 -35 -4 -69v-22q2 -44 10 -51h1q4 0 13 4
q11 6 25.5 14.5t25.5 17.5q124 89 372 533q20 35 34 62.5t17 33.5q4 17 16.5 24.5t37.5 7.5t37.5 -12.5t20 -54t13.5 -125.5q9 -118 21.5 -200.5t32.5 -164.5q49 -193 116 -246q14 -10 20.5 -10.5t9.5 -0.5q9 0 22 4q61 17 102.5 82.5t73.5 194.5q35 135 35 271v8
q0 67 -6.5 126.5t-24.5 146.5q-23 117 -55 214.5t-91 230.5q-13 28 -21 46t-12.5 28.5t-6 16t-1.5 7v2.5v3q0 4 3.5 6t10.5 5q7 2 14 2q18 0 30 -18q31 -44 77 -144t72 -178q16 -50 35.5 -137.5t29.5 -153.5q8 -50 10 -88t2 -77q0 -26 -1 -56q-1 -91 -8.5 -151.5
t-29.5 -141.5q-41 -167 -104 -226q-67 -62 -166 -63q-11 1 -21 1t-13 1z" />
    <glyph glyph-name="X" unicode="X" horiz-adv-x="882" 
d="M-44 -21q-5 3 -5.5 6t-0.5 5q0 5 3 15q5 12 15 34q18 37 78.5 159t122 245t82.5 162l30 58l-10 52q-46 223 -70 459q-3 34 -3.5 71.5t-0.5 59.5v44q0 42 3 53q11 41 72 41h6q16 0 25 -1.5t18 -5.5q17 -6 26 -20.5t13.5 -51t7.5 -108.5q7 -160 18 -283q2 -26 4.5 -49
t2.5 -32q1 -9 2 -14.5t2 -5.5t8 10.5t16 26.5q117 196 232.5 356.5t159.5 187.5q10 5 23.5 5.5t22.5 -2.5q7 -3 7 -9q0 -2 -1 -5q-3 -9 -22 -33q-115 -151 -199 -277.5t-186 -302.5l-47 -80l7 -43q32 -201 72 -327q10 -29 24.5 -60.5t25.5 -47.5q19 -27 44.5 -46t43.5 -19
q62 0 140 178q21 52 59.5 153.5t62.5 168.5q7 18 14 20t10 2q7 0 13 -5q5 -5 5 -13q0 -3 -1 -7q-14 -49 -57 -176q-50 -144 -75.5 -204t-51.5 -91q-48 -60 -123 -60q-21 0 -44 5q-91 17 -152.5 97.5t-109.5 245.5q-4 16 -7.5 27t-4.5 12q-1 -1 -14.5 -26t-33.5 -62
q-20 -39 -43.5 -83t-39.5 -73q-15 -28 -36 -68.5t-38 -72.5q-57 -111 -93 -174q-11 -19 -19 -22q-8 -2 -16 -2q-9 0 -17 3z" />
    <glyph glyph-name="Y" unicode="Y" horiz-adv-x="854" 
d="M114 -127q-95 20 -135 101q-29 62 -29 139v19q4 90 45 172q60 120 181 176q56 28 121.5 42t163.5 21q19 1 32.5 2.5t14.5 2.5q3 6 15.5 63.5t27 134.5t24.5 139q48 301 63 543l2 29l-9 -17q-12 -21 -84 -174q-40 -84 -70.5 -141t-63.5 -107q-86 -134 -155 -157
q-11 -5 -21.5 -6.5t-33.5 -1.5q-31 0 -51 5.5t-38 18.5q-72 53 -89 213q-3 33 -3 77q0 43 3 76q7 75 25 149.5t40 120.5q13 28 31 39.5t50 12.5h5q42 0 54 -16q3 -4 3.5 -5.5t0.5 -3.5q0 -1 -1 -4q-1 -4 -3 -13q-43 -141 -61 -315q-5 -54 -5 -112q0 -59 5 -96
q13 -79 39 -103q2 -2 7 -2q13 0 45 21q48 34 107 106t109 159q19 32 33 59.5t32.5 68t50.5 112.5q16 34 28 59t16 29q4 5 8.5 6t17.5 1q12 0 17.5 -1t9.5 -5q34 -19 34 -163q0 -19 -1 -40q-5 -238 -44 -511q-11 -70 -22.5 -134.5t-17.5 -88.5q0 -2 3 -2q7 0 28 9
q32 13 75.5 35.5t79 44t43.5 31.5q4 8 7.5 10t10.5 2q19 0 19 -13q0 -21 -106 -81q-50 -30 -87 -47t-79 -29q-1 0 -2.5 -3.5t-1.5 -8.5q-2 -10 -11.5 -45t-21 -74.5t-19.5 -63.5q-5 -18 -15 -44.5t-19 -49.5q-126 -317 -309 -367q-23 -6 -45 -6.5t-29 -0.5q-27 0 -45 3z
M203 -79q44 23 91 84q18 25 32.5 48.5t33.5 61.5q28 52 48.5 103.5t45.5 129.5q9 26 19.5 62.5t18 66.5t7.5 34q0 1 -1.5 1.5t-6 0.5t-13.5 -0.5t-23.5 -2t-34.5 -2.5q-121 -10 -204 -51q-110 -52 -161 -156q-39 -73 -39 -162q0 -10 1 -21q1 -37 5 -61t15 -50
q42 -96 124 -98q12 0 20.5 2.5t21.5 9.5z" />
    <glyph glyph-name="Z" unicode="Z" horiz-adv-x="1002" 
d="M-16 3q-9 2 -18 7t-13 9q-3 3 -3 7q0 3 2 7q4 10 18 28q8 11 29 41t45 66l31 44q28 40 32 46q3 5 28 43t61 91q78 118 133 197t148 208q15 22 28.5 41t18.5 26q55 77 153 204.5t167 211.5l38 45l-28 -15q-83 -41 -191 -53q-25 -3 -59 -3q-17 0 -37 1q-59 1 -90 6
q-65 13 -150 40q-62 20 -83.5 23.5t-32.5 3.5q-16 0 -30 -5q-31 -9 -65.5 -31.5t-56.5 -46.5l-12 -12l-22 1q-13 0 -19 1.5t-10 6.5q-7 7 -7 17q0 22 38 59q62 60 167 70q14 2 30 2q67 0 175 -33q17 -5 35 -10q31 -9 50 -15q37 -11 64 -15t65 -4q42 0 72.5 5t77.5 19
q62 18 117 41.5t70 38.5q3 3 6 5t8.5 2.5t15.5 0.5t18.5 1.5t11.5 2.5q7 4 23.5 4.5t33 -0.5t23.5 -5q8 -4 10 -7.5t2 -6.5t-1 -7q-6 -18 -68 -99q-3 -3 -5 -7q-13 -17 -26 -33.5t-19 -25.5q-8 -9 -17.5 -21.5t-16.5 -21.5q-241 -313 -470 -634q-33 -47 -63.5 -90t-44.5 -62
q-42 -59 -147 -205l-42 -59l14 3q6 2 23.5 2.5t36.5 0.5h14q21 0 39 -2q25 -3 59 -13t93 -30q60 -20 93.5 -30.5t52 -14t36.5 -3.5q78 0 171.5 37.5t123.5 80.5q11 18 29 18q4 0 8 -1q10 -1 13.5 -4.5t3.5 -8.5v-3q0 -49 -144 -119q-64 -32 -108 -43t-99 -11h-10
q-35 0 -52 1t-34 5q-72 16 -159 49q-42 16 -66.5 24.5t-38.5 12t-27 3.5q-6 1 -12 1q-14 0 -28 -4q-18 -5 -46 -19q-50 -25 -84 -56q-19 -16 -34 -20q-13 -4 -25.5 -4h-17.5q-13 0 -23 2z" />
    <glyph glyph-name="bracketleft" unicode="[" horiz-adv-x="372" 
d="M105 225q0 30 -1 71t-2 74q-2 97 -2 249v107q2 228 6 376q4 86 10 168.5t11 111.5l1 4l-1 2q0 2 -4 4q-7 3 -7 7q0 3 5 7q2 2 7.5 2.5t17 1.5t33.5 1q22 1 38 1t25 -1q28 -3 29 -10.5t1 -8.5q0 -13 -27 -17h-33q-7 1 -11 1v-30q-1 -42 -6 -104q-12 -139 -17.5 -320.5
t-6.5 -519.5q0 -167 -8 -334v-4q1 -1 5 -1h20l20 1l18 -1q18 0 29 -2q6 -2 11 -8.5t5 -11.5q0 -3 -1 -5q-2 -8 -17 -11q-14 -4 -34 -5t-29 -1q-21 0 -42 4q-28 4 -35 20q-2 11 -4 48t-2.5 76t-1.5 57v1z" />
    <glyph glyph-name="backslash" unicode="\" horiz-adv-x="999" 
d="M84 1392q49 -57 223.5 -314t385.5 -585q113 -178 173.5 -270t89.5 -135q32 -45 39 -62q4 -8 4 -13q0 -7 -6 -10q-4 -2 -9 -2q-20 0 -55 37q-25 28 -152.5 209t-290.5 415.5t-292.5 425.5t-159.5 241q-22 39 -30 59q-4 12 -4 21q0 6 2 11q5 13 18 13q5 0 19.5 -4.5
t44.5 -36.5z" />
    <glyph glyph-name="bracketright" unicode="]" horiz-adv-x="431" 
d="M253 3q-4 3 -7 8.5t-3 12.5q0 1 -0.5 3t-1.5 2q-2 1 -19.5 1t-43.5 1h-33t-18.5 0.5t-10 1.5t-5.5 2q-11 6 -11 12q0 5 9 10q10 4 40.5 7.5t59.5 3.5l30 -1l-1 27v13l-2 48q0 21 0.5 151.5t1 295.5t1 290t1.5 135q0 4 1 23t1 45q1 53 3 98.5t7 109.5q2 29 3.5 50.5
t2.5 25.5v9h-8q-3 0 -13 -1t-21 -3q-11 -1 -26 -2t-25 -1h-17.5t-9.5 1t-6 3q-3 1 -5 3t-2 4v1q0 9 30 19q9 3 15.5 4.5t17 2t31.5 0.5q16 1 25.5 1t14 0.5t7 1.5t4.5 3q9 7 18 7.5t11 0.5q13 0 21 -5q4 -2 6 -6.5t3 -15.5t1 -32q1 -17 0.5 -32t-2.5 -45t-7 -93
q-9 -110 -13 -252.5t-6 -377.5q0 -69 -1 -137t-2 -103q-1 -31 -2 -74q-1 -49 -2 -89q-1 -36 -1.5 -60.5t-1.5 -26.5q0 -1 -0.5 -7t-0.5 -14q-1 -23 -3.5 -39.5t-6.5 -19.5q-5 -3 -10 -3h-7q-6 0 -11 2z" />
    <glyph glyph-name="underscore" unicode="_" horiz-adv-x="718" 
d="M138 430q-28 7 -33 15t-5 12q0 8 12 15q11 6 33.5 9.5t71 5t137.5 1.5q68 0 116.5 1t63.5 3q22 2 36 3.5t21 1.5t11 -1t7 -2q4 -2 6.5 -4.5t2.5 -4.5q0 -7 -14 -12t-52.5 -10t-110.5 -13q-22 -3 -46 -5.5t-38 -4.5q-65 -8 -111 -10t-66 -2q-28 0 -42 2z" />
    <glyph glyph-name="a" unicode="a" horiz-adv-x="557" 
d="M211 564q6 36 13 65.5t18 68.5q5 19 9 32.5t4 16.5l-6 -14q-7 -16 -18 -40q-21 -48 -51 -109t-44 -86q-21 -37 -47.5 -52.5t-47.5 -15.5q-18 0 -38 9q-38 16 -50 94q-3 17 -3 39q0 39 9 94q36 206 136 305q46 40 108 43h9q90 0 100 -74l2 -17l7 14q8 15 15 20.5t22 6.5h9
q23 0 30 -13q2 -5 1.5 -14.5t-5 -33t-15.5 -70t-29 -123.5q-52 -212 -52 -316q0 -55 15 -80l6 -12l9 5q13 8 30.5 23t32.5 32q95 107 187 363q18 52 24 54h2q5 0 7 -3v-2q0 -9 -13 -58q-24 -89 -77.5 -207.5t-111.5 -190.5q-20 -23 -38 -34q-34 -20 -65 -20q-20 0 -39 9
q-45 24 -57 70.5t-12 90.5q0 14 1 28q4 59 13 102zM231 750q18 37 32.5 67t19.5 39l10 20q-10 37 -25 60.5t-51 42.5q-31 -20 -54.5 -63.5t-39.5 -91.5t-24 -83q-2 -9 -9.5 -48.5t-15.5 -88t-10.5 -72.5t-2.5 -32q0 -17 4 -18q20 14 55.5 71t68 116.5t42.5 80.5z" />
    <glyph glyph-name="b" unicode="b" horiz-adv-x="731" 
d="M204 160q-56 13 -78 51q-17 30 -17.5 53.5t-0.5 25.5q0 40 15 79q27 73 93 136q40 39 81.5 62.5t102.5 42.5q11 3 16.5 5t7 4.5t2.5 6.5q4 22 5.5 51t1.5 47t-1 35q-1 29 -3 50q-5 49 -17 59.5t-22 10.5q-17 0 -43 -14q-110 -62 -213 -237q-19 -33 -26 -50t-10 -37
q-2 -12 -5.5 -27t-6.5 -28q-10 -41 -24 -54t-51 -13q-51 0 -58 21q-3 13 -3 40q0 43 8 125q14 132 40 279q61 342 169 553q69 141 155 221q70 69 138 69q7 0 13 -1q58 -3 83 -42q26 -43 26 -114q0 -12 -1 -25q-4 -89 -43 -199q-33 -90 -93 -201t-118 -189
q-97 -130 -171 -167q-2 -1 -5 -2q-7 -4 -12 -6.5t-6 -2.5l-1 -9q-2 -10 -4 -25q-1 -14 -3 -26t-3 -15v-2q0 -1 1 -1t3 2q5 4 18 21q26 32 66.5 73t65.5 60q47 36 83 43.5t49 7.5q43 0 81 -32q55 -50 66 -173l3 -34l8 4q35 21 89 60.5t81 64.5q23 21 36 21q3 0 6 -1
q3 -2 3 -6q0 -10 -21 -34q-26 -27 -82 -68.5t-98 -66.5q-4 -1 -7 -3q-8 -3 -11.5 -7t-5 -13t-3.5 -28q-1 -7 -2 -15q-17 -172 -95 -288q-68 -101 -151 -125q-19 -5 -38 -5.5t-25 -0.5q-24 0 -38 3zM214 875q141 144 248 367q65 137 76 261q1 18 1 35q0 94 -37 141
q-14 16 -21.5 17.5t-9.5 1.5q-11 0 -26 -8q-70 -42 -139 -177q-99 -188 -155 -604q-5 -39 -9 -66t-5 -30q0 -2 2 -2q4 0 20 13q22 18 55 51zM251 213q30 24 67 83.5t60 121.5q10 26 20 62.5t15.5 62.5t5.5 33q0 3 -1 4q-2 0 -15 -4.5t-29 -11.5t-27 -12q-33 -17 -75 -59
q-24 -23 -39.5 -43.5t-27.5 -44.5q-14 -28 -20 -47.5t-7 -39.5v-6q0 -34 11 -62q11 -31 31 -41q8 -4 14 -4h2q6 0 15 8z" />
    <glyph glyph-name="c" unicode="c" horiz-adv-x="453" 
d="M1 476q-21 21 -33 54q-18 42 -18 97q0 57 20 127q50 171 145 233q29 17 48.5 22t36.5 5q9 0 18 -1q24 -2 39.5 -10t29.5 -25q33 -37 34 -105v-6q0 -12 -3 -22q-3 -13 -7.5 -18.5t-7.5 -5.5q-2 0 -4 2q-4 5 -5 26q0 11 -1 24.5t-4 22.5q-10 38 -31 62q-25 27 -41 27h-2
q-7 -1 -18.5 -11t-23.5 -23t-20 -25q-37 -61 -61 -154.5t-24 -165.5v-11q6 -89 46 -117q11 -7 25 -7q13 0 28 6q32 12 85 54q25 19 42.5 35.5t49.5 51.5q40 44 66 80t58 89q8 13 12.5 20t7.5 10.5t4.5 4.5t2.5 1l2 -1q6 -1 6 -4v-2q0 -5 -5 -16q-6 -12 -20 -36
q-57 -103 -141 -204q-39 -47 -96.5 -85.5t-92 -41.5t-39.5 -3q-58 0 -108 46z" />
    <glyph glyph-name="d" unicode="d" horiz-adv-x="629" 
d="M335 298q-45 13 -67 62q-31 60 -31 158v6q0 23 0.5 42.5t1.5 28.5q1 11 1 12v1q-2 0 -5 -8l-14 -35q-13 -34 -30.5 -70.5t-28.5 -54.5q-22 -34 -50 -45q-9 -4 -15.5 -4.5t-13.5 -0.5h-16q-19 1 -28 2.5t-21 7.5q-62 32 -68 143v16q0 80 26 179q28 109 71 177
q12 19 30.5 37t34.5 28q34 19 74 19h4q41 -1 70 -22q7 -6 16.5 -17.5t17.5 -23.5t10 -19q0 -1 1 -1t6 12q6 15 20 56q54 162 114 282q89 181 185 277q38 39 65.5 53t61.5 14h5q27 0 43.5 -4.5t29.5 -16.5q15 -13 19.5 -27t4.5 -33q0 -8 -1 -17q-1 -65 -49 -170
q-50 -113 -126 -226.5t-149 -184.5q-72 -68 -140 -90l-14 -5l-11 -43q-45 -193 -45 -312q0 -83 22 -130q7 -14 15 -21t13 -7h2q47 14 124 140q13 23 39.5 73.5t54.5 107t48 99.5t20 47q0 2 2 4t5 3q4 2 8 2t7 -2q6 -3 6 -10q0 -20 -87 -205q-47 -104 -79.5 -158.5
t-63.5 -84.5q-23 -24 -42 -33.5t-46 -10.5h-9q-18 0 -28 3zM451 904q75 58 160.5 176t140.5 240q43 98 46.5 138.5t3.5 49.5q0 53 -28 69q-4 2 -5.5 2h-2.5q-2 0 -5 -1q-4 -1 -11 -5q-15 -8 -40 -32t-44 -49q-150 -204 -258 -557q-9 -31 -15 -51q-4 -13 -5 -15v-1q0 -1 2 -1
t6 2q10 4 24.5 13.5t30.5 21.5zM113 455q76 85 145 342l15 55l-10 18q-25 47 -50 71q-7 6 -11.5 9.5t-5.5 3.5t-5 -3.5t-9 -9.5q-13 -15 -28 -46.5t-24 -62.5q-14 -47 -26 -116.5t-17 -130.5q-3 -39 -3 -66v-36q0 -26 2 -37q2 -7 3.5 -8.5t2.5 -1.5q2 0 3 1q2 2 7.5 7
t10.5 11z" />
    <glyph glyph-name="e" unicode="e" horiz-adv-x="351" 
d="M70 432q-77 18 -98.5 75.5t-21.5 111.5q0 47 11 103q10 49 31.5 101t47.5 92q36 54 76 76q19 10 35.5 11t21.5 1q21 0 37 -7q37 -19 37 -62v-2q-2 -65 -55 -136q-30 -40 -60 -60t-76 -32q-4 -22 -4 -58v-15q0 -48 5 -76q11 -61 28.5 -74t28.5 -13q25 0 62 30
q26 22 47.5 46t31.5 37q23 29 41 57t48 81q13 23 21 36.5t12.5 20t7.5 9t6 3.5q3 0 6 -0.5t4 -1.5v-1q0 -7 -37 -81q-96 -192 -180 -251q-36 -25 -79 -25q-17 0 -35 4zM182 851q24 48 24 79q0 10 -3 19q-2 6 -8 13t-12.5 12.5t-9.5 5.5q-1 0 -7 -4.5t-13 -11.5
q-26 -29 -52 -90.5t-38 -122.5l-2 -16q41 9 72 44t49 72z" />
    <glyph glyph-name="f" unicode="f" horiz-adv-x="546" 
d="M127 88q-65 15 -109.5 80t-61.5 170q-6 39 -6 96v17q0 69 7 130q41 304 179 587q10 21 16 33t11.5 21.5t14.5 24.5q95 157 194 219q40 23 89 25h4q56 0 81 -25q26 -25 28 -51.5t2 -36.5q0 -33 -8 -69q-11 -50 -46 -121q-75 -155 -193 -269q-93 -93 -158 -93q-7 0 -13 1
q-8 0 -12 0.5t-6 0.5q-1 0 -1 -1l-3 -13q-4 -14 -9 -32q-1 -6 -3 -11q-6 -24 -6 -29v-1q11 -10 48.5 -20t71 -13t53.5 -3q23 0 43 3q103 18 180 102q19 19 36 40.5t23 31.5q5 10 14 10q2 0 5 -1q4 -2 4 -7q0 -7 -9 -22q-15 -25 -42.5 -56.5t-60.5 -57.5q-90 -73 -200 -73
q-32 0 -66 6l6 -4q5 -5 14 -11q23 -16 38 -31t34 -41q31 -40 44 -69t19 -68q3 -16 3.5 -32t0.5 -42q-1 -35 -6 -61.5t-16 -58.5q-53 -152 -146 -175q-18 -4 -40 -4t-42 4zM203 855q47 24 110 85q173 173 212 350q4 24 4 52v11q-1 33 -8 52q-11 28 -29 42l-10 8l-11 -5
q-13 -7 -37 -30.5t-43 -48.5q-128 -170 -222 -450q-9 -26 -13.5 -41t-5.5 -20t-1 -7v-4q1 -2 4 -3q5 -2 11 -2q15 0 39 11zM201 122q66 38 109 161q12 35 15.5 62t3.5 55v15q-1 50 -13 84t-41 75q-41 59 -92 88q-14 8 -31.5 17t-30.5 14.5t-15 5.5q0 -1 -3.5 -18t-8.5 -41
q-19 -93 -26 -170q-3 -36 -3 -91t3 -82q12 -80 41.5 -130t66.5 -52q5 0 12 2t13 5z" />
    <glyph glyph-name="g" unicode="g" horiz-adv-x="706" 
d="M8 -286q-75 18 -120 101q-48 82 -48 168q0 9 1 19q2 41 12.5 73t35.5 70q61 102 182 149q30 14 64.5 23.5t103.5 23.5q33 7 55.5 12t24.5 6q3 4 11 53t18.5 119t19 136.5t12.5 105.5l4 54l-13 -37q-74 -201 -146 -301q-25 -33 -47.5 -46t-53.5 -13h-5q-140 5 -152 196v18
q0 68 20 149q23 92 62 165q75 131 166 158q21 6 41 6q21 0 41 -6q42 -10 69 -37q41 -45 45 -111q0 -10 0.5 -14.5t2.5 -6.5t5 -3q14 -7 24.5 -51t15.5 -112q2 -37 2 -79v-28q-1 -57 -6 -145q-2 -51 -3.5 -80t-1.5 -37v-4q3 0 15 8t28 20.5t29 24.5q77 70 122.5 157.5
t73.5 183.5q19 57 30 57q2 0 3 -1q5 -4 5 -18q0 -16 -6 -44q-10 -38 -33 -96.5t-46 -104.5q-78 -147 -212 -219q-17 -9 -17 -14q-1 -7 -4.5 -32.5t-8 -55t-8.5 -48.5q-28 -156 -81.5 -276.5t-121.5 -183.5q-46 -42 -104 -54q-18 -4 -44 -4h-10q-31 1 -52 6zM146 487
q35 25 78.5 84.5t77.5 131.5q18 36 35.5 81.5t30.5 85.5q7 21 10 32.5t3.5 18.5t0.5 16q-7 97 -72 139q-21 13 -34 13h-2q-14 -1 -32 -18q-66 -65 -107 -251q-16 -77 -20.5 -141.5t-4.5 -94.5q0 -40 5 -66q2 -10 4.5 -19t5.5 -15.5t4 -6.5t6 3t11 7zM70 -243q37 16 83 89
q69 107 107 244q12 42 25 96.5t20 91.5t7 45v3q-1 0 -7.5 -2t-16.5 -4t-28 -6.5t-36 -8.5q-98 -20 -165 -60q-86 -55 -130 -159q-8 -23 -11.5 -51t-3.5 -47q0 -10 1 -19q8 -62 38.5 -121t68.5 -85q15 -10 30 -10q9 0 18 4z" />
    <glyph glyph-name="h" unicode="h" horiz-adv-x="700" 
d="M446 111q-54 18 -77.5 81.5t-25 113.5t-1.5 68q0 62 5 120q7 75 14 116q3 17 6 40q5 27 8 48q14 88 15.5 128t1.5 52q0 38 -8 38q-6 0 -28 -17.5t-44 -40.5q-75 -78 -126 -168q-40 -70 -75 -150.5t-44 -159.5q-7 -7 -18 -9t-19 -2t-16 1q-16 3 -23.5 8t-9.5 14
q-3 14 -4.5 74t-1.5 135q0 74 2 131q2 45 3 71t2.5 50t4.5 64q19 219 67 404.5t116 296.5q74 117 159 162q41 21 86 23h7q68 0 104 -36q37 -39 46 -89.5t9 -92.5q0 -21 -2 -42q-6 -64 -17 -113q-38 -156 -132 -309t-205 -240q-56 -41 -112 -56q-12 -3 -17.5 -4.5t-7 -4
t-2.5 -7.5q-1 -7 -2.5 -36.5t-3.5 -65.5t-2.5 -57.5t-0.5 -30.5v-27l24 41q98 166 201 258q40 36 60.5 44.5t34.5 8.5q12 0 23 -4q35 -9 49 -61q3 -14 4 -40t1 -45t-1 -40q-1 -42 -5 -74q-1 -12 -3 -29l-8 -78q-13 -122 -13 -211q0 -92 14 -149q3 -10 7.5 -23.5t9.5 -25
t8 -15.5l6 -7l10 6q12 6 27 21.5t26 30.5q73 112 124 364q8 42 18 84q12 51 22 102q11 50 18.5 53t8.5 3q7 0 7 -19q0 -13 -4 -37q-11 -59 -23 -118q-8 -41 -11 -57q-7 -38 -21 -99.5t-34 -128.5q-2 -5 -3 -10q-13 -44 -33.5 -96t-53.5 -90.5t-83 -42.5h-9q-18 0 -29 3z
M125 862q119 61 229.5 215.5t156.5 325.5q13 48 17 97.5t4 69.5q0 54 -13 104q-18 69 -75 95l-9 3t-5 1l-4 -1q-4 -1 -12 -4q-37 -12 -80 -57.5t-78 -109.5q-60 -115 -103.5 -300.5t-59.5 -392.5q-1 -19 -2.5 -33.5t-1.5 -18.5q-1 -2 -1 -4t1 -3h1q2 0 5 1q4 1 12.5 4.5
t17.5 7.5z" />
    <glyph glyph-name="i" unicode="i" horiz-adv-x="359" 
d="M98 1067q-11 5 -15 14.5t-4 31.5q0 24 4.5 32t21.5 14q15 5 28 5q24 0 37 -21q3 -6 3.5 -14t0.5 -11q0 -8 -1 -16q-1 -11 -4 -18q-2 -3 -6.5 -7t-8.5 -7q-12 -5 -22.5 -5h-14.5q-11 0 -19 2zM118 330q-107 15 -137 175q-3 13 -4.5 25t-1.5 29.5v48.5q1 139 26 227.5
t66 96.5q5 1 9 1q7 0 14 -2q12 -3 17 -9q3 -5 3 -16v-6q-1 -16 -9 -55q-16 -79 -25 -191q-4 -44 -4 -95v-21q1 -64 6 -90q14 -61 44 -85q12 -10 24 -10q7 0 14 3q21 7 54 40q35 34 59 76.5t46 106.5q14 39 22.5 77.5t19.5 103.5q6 36 11 62t7 30q1 4 4.5 6t10.5 2q3 1 5 1
q8 0 9 -5q2 -3 2 -10t-2 -19q-3 -36 -10 -80t-12 -65q-13 -52 -33.5 -110t-36.5 -91q-21 -40 -50.5 -76t-56.5 -55q-33 -22 -70 -22q-10 0 -21 2z" />
    <glyph glyph-name="j" unicode="j" horiz-adv-x="363" 
d="M34 1173q-20 10 -20 39v6q1 23 10.5 30.5t27.5 7.5h9q41 -4 51 -20.5t10 -27.5q0 -10 -7 -21q-13 -21 -50 -21q-22 1 -31 7zM-312 -198q-64 25 -85 112q-3 15 -3 39v12q0 31 4 53q17 80 55 137q26 38 65 76t75 60q11 6 35.5 18.5t50.5 25.5q22 10 34.5 16.5t18.5 10
t8 6.5t2 6q9 44 24 174t28 274q5 68 10 101t10 43q7 16 35 16h7q23 -1 34 -13.5t16 -42.5q8 -45 8 -125q0 -56 -4 -130q-2 -41 -5.5 -86.5t-6.5 -74.5q-3 -27 -4.5 -43t-1.5 -20v-3q69 42 135 112t101 144q41 89 56 111.5t20 22.5q3 0 3 -5q0 -15 -13 -55.5t-37 -86.5
q-46 -90 -115 -162q-70 -72 -158 -122l-5 -39q-32 -213 -98 -354q-52 -106 -118.5 -160t-136.5 -54h-8q-10 1 -20.5 2.5t-15.5 3.5zM-263 -159q21 12 45.5 38t44.5 58q47 79 81 220q4 15 9.5 42.5t11 56t8.5 47t3 22.5v2q-1 0 -13.5 -6.5t-30 -15.5t-33 -17.5t-23.5 -13.5
t-21 -15t-25 -20q-127 -109 -133 -250q-1 -13 -1 -24q0 -15 2 -27q3 -20 14 -46q10 -24 26 -42q6 -7 11.5 -12t6.5 -5t5.5 2t11.5 6z" />
    <glyph glyph-name="k" unicode="k" horiz-adv-x="641" 
d="M170 468q-30 79 -33 165l-1 44l-15 -31q-64 -135 -80 -231q-2 -16 -5 -30.5t-5 -19.5l-5 -10h-19q-34 0 -41 16q-2 3 -4 15t-5 27q-2 14 -3.5 34t-2 59t-1.5 110v83q0 141 5 248q8 138 29 272q59 367 194 506q39 38 73 45.5t49 7.5q37 0 71 -21q64 -46 71 -212v-22
q0 -209 -122 -462q-91 -184 -174 -228q-16 -9 -34 -13t-32 -4h-6l-17 1l-2 -31q-1 -16 -2.5 -51t-3.5 -74.5t-3 -64.5t-1 -34v-6q0 -2 1 -2q2 0 12 26q64 149 157.5 275t156.5 151q13 4 25 4q16 0 29 -6q23 -9 33 -33q6 -17 5.5 -47t-6.5 -54q-30 -97 -111 -140
q-36 -18 -94 -29l-16.5 -3t-6 -2t-0.5 -2v-2q1 -3 4 -18t7 -36q5 -31 8 -48.5t6 -30t7 -29.5q28 -116 85 -167q23 -22 35.5 -24.5t18.5 -2.5q14 0 30 8q37 16 73 71q87 133 153 360q11 33 19 34l7 1q8 0 8 -14q0 -8 -2 -20q-19 -83 -49 -174t-69 -166q-58 -104 -112.5 -122
t-84.5 -18q-47 0 -92 26q-73 43 -112 146zM166 891q33 36 67 91q54 91 94.5 196t55.5 195q8 53 8 103q0 40 -5 79q-12 88 -47 144q-6 9 -13 17.5t-14 14.5t-10 6t-12.5 -10t-21 -23t-18.5 -24q-138 -212 -187 -783q-2 -20 -2.5 -35t-0.5 -18q10 -7 21 -7q9 0 19 4
q22 10 41 26t25 24zM238 735q27 7 46 16t38 25q80 72 86 172q0 39 -13 43h-3q-6 0 -16 -5q-14 -7 -30 -20q-73 -59 -162 -203l-6 -10q-12 -18 -12 -22v-1q0 -3 8 -3h12q10 1 24.5 3t27.5 5z" />
    <glyph glyph-name="l" unicode="l" horiz-adv-x="409" 
d="M-20 623q0 74 4 126.5t14 117.5q40 231 131 437t198 303q20 18 36.5 28t36.5 17q15 5 22.5 6t16.5 1h9q14 -1 22.5 -3t16.5 -7q52 -26 52 -133v-8q0 -89 -45 -223q-100 -295 -272 -473q-78 -76 -143 -87l-13 -2l-2 -24q-2 -22 -2 -58.5v-60.5v-48q1 -48 3 -67
q14 -111 36 -161.5t49 -54.5h4q35 0 73 52q40 55 78 138t67 162.5t43 125.5q23 70 34 70h1q4 -2 4 -15q0 -19 -10 -65q-11 -50 -36 -132.5t-62 -167t-86 -140.5t-108 -56h-4q-45 4 -76 40t-49.5 90t-27.5 111q-15 99 -15 161zM98 755q90 46 202 206q161 234 204 467
q5 32 5.5 68t-4.5 59q-8 36 -25 60.5t-35 24.5q-22 0 -63.5 -43t-78.5 -106q-144 -253 -213 -606q-3 -18 -8 -49t-9 -58t-4 -33q0 -1 1 -1q5 0 28 11z" />
    <glyph glyph-name="m" unicode="m" horiz-adv-x="805" 
d="M445 320q5 67 23.5 144.5t63.5 214.5q33 99 47 149t19 88q4 26 4 48q0 12 -1 23q-3 29 -14 29q-15 0 -45.5 -24.5t-62.5 -62.5q-96 -109 -153 -288q-9 -28 -16.5 -47t-9.5 -21q-4 -2 -10 -2.5t-10 -0.5h-9q-8 1 -14 3q-3 2 -6 4.5t-4 5.5t-1.5 34.5t-1.5 77.5
q0 44 -0.5 75.5t-0.5 33.5h-1q-2 0 -9 -7q-8 -9 -18.5 -22t-19.5 -27q-51 -77 -84 -176q-9 -29 -18.5 -67t-14.5 -67q-7 -8 -20 -9.5t-19 -1.5q-11 0 -21 3q-21 10 -30 49t-11 83t-2 66v3q0 88 6 131t24 57q14 13 39 13l11 -1q20 -3 29.5 -21.5t12.5 -46.5q2 -18 1.5 -52.5
t-3.5 -70.5l-1 -19l19 37q19 35 33 59t33 52q43 67 78 67q5 0 9 -1q14 -2 22 -8t14 -18q3 -7 4.5 -13.5t2.5 -18t1 -33.5l1 -49l25 48q30 58 54.5 97.5t55.5 77.5q75 94 124 111q13 4 27 4q11 0 23 -3q25 -7 39 -25q10 -14 13 -32t3 -43v-18q-1 -45 -12 -100t-42 -163
q-39 -138 -58 -220.5t-25 -142.5q-3 -31 -3 -67q0 -37 3 -52q6 -27 23 -27h2q19 3 44 31q55 64 90 150.5t61 172.5q8 27 17 52q21 66 45 131q18 45 29 45h1q5 -1 5 -11q0 -14 -9 -46l-2 -10q-28 -97 -59 -190t-76 -185q-9 -20 -26 -49t-40 -58q-59 -72 -102 -72q-6 0 -12 2
q-45 11 -65 70.5t-20 122.5q0 12 1 24z" />
    <glyph glyph-name="n" unicode="n" horiz-adv-x="657" 
d="M374 169q-33 12 -49 50.5t-19 115.5q-1 16 -1 32q0 51 10 108q13 74 54 220q45 155 45 231v14q-1 15 -1.5 25t-1.5 11t-3 1q-8 0 -27 -14q-25 -17 -53 -45q-97 -98 -163 -240q-15 -34 -33 -81t-25 -70q-5 -19 -9 -37q-4 -20 -8.5 -34t-10.5 -17q-10 -3 -20.5 -3h-14.5
q-12 0 -22 2q-23 9 -34.5 60.5t-12 93t-0.5 56.5q0 52 5 98q6 60 18 85q6 11 16.5 20t21.5 12q16 4 37 3.5t33 -6.5q13 -6 17.5 -16.5t4.5 -37.5q0 -18 -4 -61t-9 -79v-8q1 0 4 5q4 6 12 21q93 165 185 260q35 36 59.5 48.5t48.5 12.5h8q45 -1 62 -37q13 -24 13 -71
q0 -18 -2 -39q-8 -75 -44 -217q-25 -97 -39 -153t-20.5 -85t-8.5 -46t-4 -38q-1 -16 -1 -31t1 -30q3 -30 9 -47q5 -17 8 -19t5 -2q4 0 11 6q29 21 59.5 67.5t72.5 135.5q65 141 122 287q14 32 24 32h1q6 0 6 -9q0 -10 -6 -29q-26 -76 -87 -217q-24 -56 -56.5 -122.5
t-50.5 -95.5q-15 -24 -33 -43t-33 -27q-15 -7 -26.5 -8t-14.5 -1q-15 0 -26 3z" />
    <glyph glyph-name="o" unicode="o" horiz-adv-x="486" 
d="M68 414q-87 21 -93 181v22q0 68 15 143q17 88 48 156q21 43 53 55.5t60 12.5q14 0 29 -3q43 -9 77 -35q47 -39 58 -91q6 -25 7.5 -50.5t1.5 -36.5q0 -22 -3 -38q-2 -9 -2 -12q0 -4 1 -4h2h3q44 13 86.5 41t70.5 55q16 15 29 22t19 7q3 0 5 -2q1 -1 1 -3q0 -6 -15 -26
q-36 -45 -94.5 -84t-114.5 -48q-1 -1 -5.5 -14t-11.5 -32q-54 -159 -123 -204q-30 -16 -66 -16q-18 0 -38 4zM275 715q8 35 8 68q0 31 -7 59q-14 59 -77 102q-1 0 -7 -13.5t-13 -32t-12 -36.5q-3 -12 -3 -24q0 -23 11 -47q17 -35 44.5 -59t49.5 -26q1 0 3 2.5t3 6.5z
M227 588q8 16 16 35t13 32.5t5 16.5v1q-3 -1 -9 -1q-10 0 -29 4q-27 7 -54 18t-37 22q-12 -19 -20 -68.5t-8 -76.5v-31q0 -45 10 -65q35 4 66.5 44t46.5 69z" />
    <glyph glyph-name="p" unicode="p" horiz-adv-x="624" 
d="M53 -27q-16 3 -23 12t-12 33q-14 67 -32.5 199.5t-26.5 226.5q-9 105 -9 197q0 211 48 348q18 51 36.5 68t46.5 17h9q26 -1 30.5 -10.5t4.5 -19.5q0 -14 -5 -38q-32 -163 -42 -336q-2 -29 -2 -85t1 -113.5t3 -90.5l2 -27l5 22q61 268 144 425q101 195 189 203h9
q56 0 75 -57q7 -26 7 -65v-10q0 -46 -9 -94q-2 -12 -3.5 -20t-1.5 -9q54 19 97.5 58.5t74.5 86.5q9 12 15 16.5t8 4.5t2 -3v-1q0 -6 -9 -22q-69 -131 -195 -164l-11 -31q-48 -129 -123 -184q-35 -24 -80 -24h-4q-50 0 -71 23q-15 15 -15 36q0 7 1 14q13 58 61.5 103
t117.5 63l20 5t9 3q0 1 3 12t7 27q15 60 20.5 101.5t5.5 62.5q0 14 -2 24q-1 7 -3 12.5t-4 6.5q-1 1 -4 1q-6 0 -18 -7q-16 -11 -37 -32q-91 -92 -158.5 -271t-92.5 -395q-7 -59 -8.5 -96.5t-1.5 -74.5v-45q1 -26 1 -43v-14q-1 -17 -5.5 -22t-15.5 -6q-1 0 -2 -1
q-6 -1 -10.5 -1.5t-5.5 -0.5t-4 0.5t-7 1.5zM283 539q42 41 77 107q4 9 9.5 21.5t10 23t4.5 12.5q-2 0 -7 -2q-7 -2 -16 -6.5t-16 -8.5q-64 -35 -85 -92q-5 -14 -5 -23.5v-12.5q0 -11 2 -20q4 -11 10 -11q1 0 6 3.5t10 8.5z" />
    <glyph glyph-name="q" unicode="q" horiz-adv-x="590" 
d="M136 -85q-9 42 -11.5 80t-2.5 77q0 27 1 58q2 151 30.5 300t93.5 353q12 37 19 60t7 26v1l-9 -17q-9 -18 -21 -45q-123 -258 -190 -300q-14 -6 -25 -6h-14q-16 0 -26 5q-11 6 -19.5 16.5t-12.5 22.5q-5 17 -5.5 40t-0.5 30q0 29 3 51q8 63 31.5 128.5t53.5 110.5
q35 50 75 71q35 15 75 15h13q46 -4 80 -27l16 -12l10 21q8 16 15 23t17 7q23 0 31 -20q2 -5 2 -16q0 -25 -10 -81q-14 -80 -54 -254q-100 -434 -100 -649q0 -54 7 -95q9 -53 30 -53q20 0 51 49q55 87 93.5 197.5t69.5 231.5q13 48 25 97q27 105 55.5 204.5t65.5 183.5
q10 23 23 23q3 0 6 -1h1q3 0 4 -1t1 -3q0 -1 -1 -4l-6 -15q0 -2 -1 -5q-61 -182 -110 -378q-15 -55 -29 -109q-50 -188 -85 -286t-71 -152q-52 -74 -101 -74q-9 0 -18 2q-59 17 -82 119zM75 578q69 78 154 245l39 75l-11 2q-5 1 -15.5 5t-20.5 9q-11 5 -19 7.5t-11 2.5h-2
q-13 -6 -40.5 -47t-48.5 -87q-31 -69 -47.5 -131t-16.5 -93q0 -8 1 -14q1 -7 4 -7q2 0 5 2q8 6 29 31z" />
    <glyph glyph-name="r" unicode="r" horiz-adv-x="456" 
d="M218 226q-20 6 -32 17.5t-21 32.5q-11 26 -16 58.5t-5 58.5q0 11 1 21q4 65 18.5 142t34.5 142l7 22l-6 -5q-14 -10 -31.5 -19t-29.5 -14q-20 -6 -36.5 -6h-20.5q-23 0 -39 4q-53 17 -75 77q-17 45 -17 96v15q1 28 6.5 52t17.5 55q59 155 164 155q63 0 70 -59q1 -7 1 -14
q0 -54 -33 -128q-37 -84 -95 -145q-8 -8 -11.5 -12t-4 -7.5t-0.5 -7.5q3 -13 11 -29t15 -22q5 -4 14 -4q25 0 79 30q20 11 29 18t14 14q20 26 44 34q9 2 19 2h6q14 0 23 -3q13 -5 15.5 -14t2.5 -16q0 -15 -5 -42q-8 -38 -29 -113q-29 -108 -41.5 -169.5t-13.5 -104.5v-17
q0 -45 9 -59q1 -2 4 -2q2 0 7.5 5t15.5 16q42 41 84 125q53 105 94 241q23 68 36 68q2 0 3 -1q5 -4 5 -18q0 -22 -12 -68q-30 -104 -67 -194.5t-70 -139.5q-44 -71 -102 -71h-11q-17 0 -26 3zM103 851q74 106 74 181q0 42 -17 62q-7 9 -14 9h-1q-8 0 -19 -14
q-23 -25 -43 -79t-27 -111q-2 -14 -2 -36t1 -40.5t3 -22.5q0 -1 1 -1q3 0 13 12q13 14 31 40z" />
    <glyph glyph-name="s" unicode="s" horiz-adv-x="331" 
d="M-145 12q-68 19 -83 88q-2 14 -2 34v14q2 29 8 50q20 70 75 125q28 29 66.5 56t104.5 65q20 12 36 21.5t21 12.5l9 6v28q0 113 -63 227q-25 46 -35.5 79.5t-10.5 60.5q0 12 1 23q7 48 41 99t77 74q23 11 49 11h4q27 0 44 -14q11 -8 15.5 -19t4.5 -30q0 -55 -59 -136
q-13 -17 -32.5 -37.5t-34.5 -32.5l-11 -9l11 -20q4 -9 13 -25t17 -31q46 -76 58 -159l5 -29q93 74 162 171q23 29 31 29q3 0 4 -4v-4q0 -17 -29 -60q-38 -47 -76 -84.5t-90 -78.5l-2 -46q-5 -145 -66 -267q-83 -160 -189 -188q-18 -4 -38 -4t-36 4zM129 909q44 66 44 107
q0 25 -17 40q-3 3 -6 3q-2 0 -7 -2q-14 -8 -32.5 -33t-31.5 -54q-12 -27 -14.5 -49t-2.5 -34q0 -18 3 -34l3 -15l22 22q9 10 20 23.5t19 25.5zM-98 45q18 11 43.5 39.5t47.5 61.5q51 79 74 175q7 25 11 49t10 71q1 2 1 3l1 3l-1 2q-1 0 -4 -1q-4 -1 -13.5 -6.5t-25.5 -15.5
q-9 -5 -20 -12q-45 -27 -73.5 -48t-50.5 -44q-79 -77 -79 -174v-2q0 -73 46 -99q12 -8 15.5 -8h4.5q5 0 13 6z" />
    <glyph glyph-name="t" unicode="t" horiz-adv-x="336" 
d="M14 291q-47 73 -56 213q-1 12 -1 29q0 33 3 83q3 75 10 131q24 205 68 386q5 22 13 52.5t15 54t8 26.5q0 1 -5 4t-13 7q-9 3 -23 10t-27 13q-30 14 -51 20t-58 9q-25 3 -46 3q-22 0 -40 -3q-37 -6 -92 -29l-45 -19l-12 5q-7 3 -9.5 5.5t-2.5 8.5q1 21 46 41t107 27
q15 2 32.5 1.5t50.5 -3.5q55 -4 90 -13t77 -29q12 -6 21.5 -10t11.5 -4q1 0 2.5 2.5t2.5 6.5q7 25 21.5 66.5t29.5 77t20 42.5q13 11 34 11h3q23 -2 35 -15q4 -6 4 -18v-5q-2 -17 -11 -52.5t-28 -97.5q-9 -27 -13.5 -44.5t-4.5 -20.5v-1q5 -5 25.5 -13t45.5 -16t44 -12
q34 -7 69 -7q30 0 60 5q67 10 117 38q6 4 22.5 17.5t36.5 30.5q24 21 36.5 31t17 10.5t6.5 0.5q7 0 14 -4q11 -3 11 -9v-2q-1 -7 -17 -26q-10 -12 -37.5 -32t-55.5 -36q-94 -50 -206 -50q-33 0 -67 4q-29 5 -64 13t-55 16q-6 2 -10 3t-5 1q-2 -4 -11.5 -39.5t-21 -83
t-20.5 -89.5q-50 -235 -60 -426q-5 -64 -5 -103q0 -38 4 -76q6 -66 25 -104q15 -29 27 -29q2 0 4 1q14 5 34 34q66 93 114.5 214.5t83.5 230.5q6 17 15 38q6 17 10 28q16 42 26.5 41.5t10.5 -15.5q0 -12 -4 -33q-11 -40 -33 -106.5t-44 -128.5q-33 -94 -57 -148.5t-52 -99.5
q-21 -38 -54 -64.5t-70 -26.5h-3q-38 2 -74 51z" />
    <glyph glyph-name="u" unicode="u" horiz-adv-x="509" 
d="M242 466q-17 55 -17 152q0 26 1 56q2 30 6.5 68t8.5 59q-16 -42 -38.5 -87t-39.5 -71q-44 -69 -72.5 -72t-31.5 -3q-51 0 -83 80q-19 53 -25 121q-1 14 -1 32q0 19 1 41q2 44 6.5 84.5t10.5 55.5q9 17 27.5 19t28.5 2q17 0 34 -4q28 -7 36 -24q3 -7 3 -25q0 -32 -10 -98
q-7 -50 -11 -102t-4 -88v-8q0 -42 10 -42h1q11 2 44 42q34 41 77 120.5t61 130.5q8 26 15 37.5t15 14.5q9 3 16 3q8 0 15 -3q14 -6 20 -20q6 -16 6 -51v-18q-2 -49 -15 -157q-12 -92 -12 -161q0 -26 2 -49q3 -26 7 -46t9 -27q1 -3 3 -3q1 0 5 3.5t11 12.5q26 32 54 89
q59 122 102 273q19 60 31 60q2 0 3 -1q7 -3 7 -22q0 -15 -4 -39q-9 -39 -34.5 -118.5t-58.5 -159.5q-25 -58 -65 -101t-80 -43h-5q-42 3 -70 87z" />
    <glyph glyph-name="v" unicode="v" horiz-adv-x="589" 
d="M-23 578q-2 22 -2 70q0 49 1.5 99t3.5 77q15 154 27 189q5 12 14.5 16.5t31.5 4.5h8q16 0 25 -3q10 -4 14 -14q4 -6 4 -39t-4 -93q-10 -146 -10 -241q0 -24 1 -45q1 -68 6 -108q6 -63 18 -63h2q15 4 50 77q54 103 94 312q8 38 13 60q11 43 36 43q3 0 7 -1q30 -7 59 -36
q55 -49 100 -54.5t59 -5.5q58 0 105 29q23 13 37 13q5 0 9 -2q3 -2 3 -5q0 -10 -24 -28q-53 -35 -94.5 -37.5t-57.5 -2.5q-50 0 -97 12q-63 16 -102 44q-1 -3 -6 -23t-11 -49q-24 -122 -53 -210q-16 -49 -32 -85q-47 -108 -76 -113.5t-36 -5.5q-41 0 -74 52q-38 61 -49 166z
" />
    <glyph glyph-name="w" unicode="w" horiz-adv-x="838" 
d="M357 334q-64 18 -83 170q-4 35 -4 93q0 24 1 51q1 94 9 167q1 6 1 10t-1 4q-1 -1 -6 -14t-11 -31q-16 -43 -41 -105t-49 -117.5t-36 -78.5q-14 -30 -32 -41.5t-47 -11.5q-40 0 -63 22.5t-33 78.5t-11 154q-1 25 -1 49q0 145 21 256q6 38 14 54.5t21 22.5q23 10 51 10
q9 0 18 -1q39 -3 53 -21q2 -3 3 -5t1 -4l-1 -5q-1 -6 -4 -17q-11 -45 -22.5 -124.5t-18.5 -160.5q-3 -32 -4.5 -75.5t-1.5 -69v-35.5q0 -20 1 -31l2 -21l19 28q43 66 85 156q20 43 43.5 100.5t42 107.5t22.5 69q2 7 3 11t3.5 5.5t7.5 3.5q7 3 18 3h5q13 0 24 -5
q16 -9 24 -43q4 -25 4 -105t-4 -183q-2 -52 -2 -84t1 -57q4 -50 10 -83.5t11 -33.5q4 2 15.5 24t24 52.5t21.5 55.5q23 68 34 121.5t23 154.5l8 66q1 4 1 8q1 11 4 18.5t16 10.5q8 2 16 2q6 0 12 -1q14 -2 23 -10q3 -3 9.5 -12t13.5 -19q21 -31 49 -54t66 -25h4q30 0 59 16
q31 17 50 38q21 19 32 19q3 0 5 -2t2 -6q0 -10 -19 -31q-53 -59 -99 -61.5t-53 -2.5q-76 0 -134 48l-11 10l-2 -18q-21 -172 -77 -351q-32 -103 -71 -112q-11 -3 -24.5 -3.5t-18.5 -0.5q-14 0 -22 2z" />
    <glyph glyph-name="x" unicode="x" horiz-adv-x="562" 
d="M-99 321q-1 1 -1 4v2q1 4 5.5 13t14 25t26 42t40.5 64l65 104l-14 38q-23 64 -40.5 139t-21.5 131q-1 12 -1 20v8q0 10 3.5 15.5t10.5 10.5q15 10 39 10t39 -10q4 -2 8 -10.5t10 -31t16 -66.5q7 -31 14 -59.5t10 -39.5l7 -26l34 46q25 33 57 73.5t59.5 73.5t38.5 44
q11 12 18 14.5t18 2.5h7q19 0 19 -13q0 -4 -3.5 -11.5t-15.5 -23.5t-35 -47q-12 -15 -34.5 -46t-46.5 -63q-23 -32 -43.5 -60t-29.5 -39q-8 -10 -13 -18t-5 -11q0 -2 3.5 -13t8.5 -24l4 -10q17 -47 38 -94.5t47.5 -78.5t59.5 -31q36 5 71 48t64.5 99t47.5 97q7 14 11 23
q40 81 54 114q25 50 37 50q2 0 4 -1q6 -4 6 -16q0 -15 -9 -40q-17 -42 -54 -124q-7 -16 -15 -33q-24 -56 -55 -114t-72 -99.5t-97 -46.5h-11q-64 0 -120 45q-44 37 -87 114l-18 32l-7 -8q-3 -5 -22 -32.5t-44 -65.5q-26 -38 -44.5 -64.5t-21.5 -29.5t-8 -4t-9 -1h-7
q-7 0 -10 3z" />
    <glyph glyph-name="y" unicode="y" horiz-adv-x="735" 
d="M-222 -337q-10 27 -14 52t-4 60q1 126 71.5 244t199.5 207q11 8 25 17t24 15q31 17 92.5 44.5t133.5 55.5q16 6 27.5 11t13.5 7q1 1 3 8.5t3 16.5q26 165 34.5 254.5t8.5 175.5v21q0 43 -3 43q-4 0 -21 -40q-4 -9 -9 -20q-93 -210 -191 -312q-27 -28 -50 -39t-53 -11
q-95 0 -113 123q-4 32 -4 70q0 42 5 91q11 94 36 175q3 10 6.5 18.5t5.5 12.5q13 32 66 32q38 0 54 -17q3 -4 4.5 -7.5t2 -8.5t-0.5 -16q-1 -10 -5 -34.5t-9 -52.5q-15 -76 -23 -125.5t-10 -88.5q-1 -22 -1 -44v-21q2 -31 7 -48l3 -11l22 15q24 17 58.5 52t59.5 68
q71 96 130 234q24 54 50 54h2q27 -1 46 -55q15 -45 18 -138q1 -15 1 -32q0 -43 -4 -103q-5 -83 -15 -164l-2 -17l18 13q74 49 137 125q24 28 43 57t46 77l36 66q24 40 33 41l8 1q5 0 5 -6q0 -12 -16 -46q-12 -26 -27 -54.5t-25 -46.5q-14 -24 -28.5 -45.5t-39.5 -52.5
q-37 -47 -74.5 -81t-89.5 -69q-30 -20 -31 -26q-1 -4 -4.5 -24.5t-7.5 -49.5q-52 -352 -179 -570q-28 -49 -64.5 -93t-69.5 -69q-60 -45 -101.5 -49.5t-53.5 -4.5q-57 0 -106 26q-60 32 -90 109zM10 -422q69 37 142.5 166.5t125.5 303.5q16 59 33.5 134.5t29.5 144.5l2 11
l-14 -5q-31 -13 -53 -22t-57 -24q-67 -29 -106 -50.5t-78 -52.5q-28 -22 -63 -56.5t-54 -58.5q-99 -132 -99 -270q1 -103 43 -168t107 -65q11 0 19.5 2.5t21.5 9.5z" />
    <glyph glyph-name="z" unicode="z" horiz-adv-x="688" 
d="M-26 -8l27 16q123 75 240 152q43 29 84 61q9 7 11.5 11t2.5 8q0 3 -1 7q-3 8 -11 25q-17 34 -42 46q-34 17 -74 17q-23 -2 -40 -2q-43 0 -55 12q-4 4 -4 12q0 21 35 68l16 20q10 14 16 22q5 7 10.5 13.5t7.5 9.5q3 3 4.5 5t1.5 3t8.5 12.5t21.5 27.5q34 42 77 103.5
t75 120.5q17 31 29.5 66.5t12.5 63.5q0 7 -1 15q-5 26 -20 27t-19 1q-24 0 -54 -10q-68 -22 -144 -72.5t-127 -105.5q-7 -6 -18 -6h-5q-15 2 -21 12q-1 3 -1 6q0 26 71 87q98 81 218 120q46 17 98 17q14 0 29 -1q73 -9 85.5 -41.5t12.5 -56.5q0 -27 -10 -58
q-20 -59 -55 -114q-93 -152 -214 -289q-19 -22 -32.5 -37.5t-13.5 -16.5q9 1 19 1q37 0 79 -12q52 -14 82 -52l6 -8t5 -5q76 55 156.5 140t128.5 160q32 48 39.5 51.5t9.5 3.5q7 0 7 -11q0 -4 -1 -8q-4 -23 -24 -59q-31 -52 -90.5 -119t-118 -123.5t-83.5 -78.5l5 -18
q9 -34 9 -69q0 -29 -6 -59q-13 -66 -42 -126q-56 -114 -146 -205q-73 -76 -192 -121q-50 -17 -99 -17h-10q-54 3 -90.5 30t-39.5 82v3q0 75 50 139q51 66 114 104zM151 -210q62 60 116 146.5t73 171.5q2 7 3.5 20t1.5 26l2 31l-18 -14q-5 -4 -24.5 -17.5t-44.5 -30.5
q-53 -35 -100 -65q-88 -52 -177 -123q-54 -43 -81 -109q-15 -43 -15 -72q0 -26 12 -42q19 -28 59 -28q9 0 19 2q53 7 111 50q42 32 63 54z" />
    <glyph glyph-name="braceleft" unicode="{" horiz-adv-x="687" 
d="M274 1q-12 3 -26.5 8t-24.5 11q-53 36 -69 126q-2 14 -2 34v15q0 32 3 53q12 94 58 171q10 15 14.5 25t4.5 13q0 1 -1 2h-1q-2 0 -7 -1q-8 -1 -19 -4q-16 -4 -25.5 -5.5t-24.5 -1.5q-37 0 -49 14q-5 5 -5 13q0 11 8 26q8 16 24 47t32 61q76 139 100 276q9 47 13 89.5
t5 108.5q3 88 11 133.5t30 85.5q17 33 41 61.5t48 44.5q33 21 56 23.5t32 2.5q25 0 46 -9q36 -20 40 -57q1 -4 1 -8q0 -17 -16 -17h-3q-2 0 -5 1q-3 2 -6.5 7.5t-9.5 16.5q-22 43 -47 43h-4q-28 -4 -58.5 -36t-53.5 -81q-12 -26 -18.5 -50.5t-9.5 -62.5t-4 -104
q-2 -66 -6.5 -111.5t-15.5 -95.5q-17 -86 -54 -172q-6 -15 -21 -46.5t-29 -59t-17 -32.5t-12 -22t-17.5 -34.5t-9.5 -22.5l-1 -4l14 2q37 7 61 7q13 0 22 -2q9 -3 16 -9.5t9 -13.5v-4q0 -19 -20 -66q-23 -54 -32 -99q-10 -52 -10 -91q0 -12 1 -23q9 -88 50 -130
q10 -12 16 -14t10 -2q6 0 13 2q27 7 71.5 35.5t93.5 68.5q34 29 34 35q0 1 -1 1q-1 1 -1 2q0 2 1 3q3 3 9 4.5t10 1.5h5q7 -1 12 -4t5 -6q0 -24 -110 -108q-38 -29 -62 -42.5t-45 -18.5q-14 -3 -29 -3.5t-23 -0.5h-15z" />
    <glyph glyph-name="bar" unicode="|" horiz-adv-x="1219" 
d="M199 1373q6 35 15.5 48t18.5 13q5 0 10 -4q8 -6 12.5 -23.5t6.5 -54.5q1 -19 1 -61q0 -63 -2 -178q-3 -191 -8.5 -427t-12 -419t-10.5 -214q-9 -52 -28 -53h-1q-9 0 -11 15q-2 12 -2 40v20q1 43 0.5 134.5t-1.5 265.5q-2 162 -2 307t2 273q3 256 12 318z" />
    <glyph glyph-name="braceright" unicode="}" horiz-adv-x="515" 
d="M148 1q-19 3 -32 11.5t-15 20.5q-1 4 -1 10v6q0 10 1.5 18t3.5 9q5 4 10 4h7q6 0 10 -2l7 -3v-15q0 -26 12 -32q2 -2 4 -3t6 -1h10q28 3 63 19q51 24 69 109q4 22 5.5 42t1.5 31q0 12 -1 22q-2 20 -7 37.5t-15 42.5q-14 33 -14 48q0 14 13 29q7 11 19.5 20t33.5 21l24 12
v13q0 13 -10 32q-12 21 -43 61q-29 37 -43.5 62t-23.5 52t-12 48t-3 51v16q0 31 1 47.5t3 32.5q6 40 14 79.5t21 99.5q22 101 30 152.5t8 95.5q1 24 0.5 36t-2.5 21q-9 45 -32 53q-2 1 -5 1q-5 0 -14 -3q-12 -3 -27 -10q-11 -5 -18.5 -10.5t-16.5 -14.5q-10 -10 -14 -13
t-8 -3q-12 0 -13 5.5t-1 6.5q0 9 8 20q24 30 56.5 38t51.5 8q24 0 47 -8q10 -4 20.5 -13.5t16.5 -19.5q16 -31 16 -87q0 -14 -1 -30q-2 -39 -9.5 -86.5t-23.5 -122.5q-26 -121 -34.5 -178t-8.5 -114q0 -23 0.5 -35.5t1.5 -20.5t3 -16q7 -38 24 -72t51 -79q18 -25 26 -38
t11 -24q5 -14 5 -24q0 -8 -3 -14q-2 -3 -9.5 -9t-16.5 -12q-36 -25 -45 -44q-3 -6 -3 -13q0 -4 1 -8q1 -13 10 -34q3 -10 7 -21.5t7 -18.5q11 -41 11 -86q0 -10 -1 -21q-4 -57 -25 -100q-18 -38 -53 -54q-16 -8 -36.5 -14.5t-40.5 -10.5q-16 -3 -32 -4t-24 -1h-14z" />
    <glyph glyph-name="exclamdown" unicode="&#xa1;" horiz-adv-x="332" 
d="M197 1165q9 -5 17 -23t11 -41q1 -6 2 -14t2 -14q1 -10 2 -55t1 -102t-1 -104t-2 -61q-1 -10 -2 -32t-2 -45q-2 -43 -4.5 -99.5t-5 -103t-3.5 -60.5q-1 -5 -2 -17t-2 -26q-4 -58 -6 -84t-3 -30q-1 -3 -3 -23t-6 -71q-1 -12 -2 -22q-1 -12 -2 -16q0 -4 -1 -18q-1 -5 -1 -12
q-2 -23 -5.5 -34.5t-10.5 -17.5q-12 -11 -26 -11q-15 0 -26 11q-7 7 -10.5 17.5t-4.5 31t-1 58.5q0 57 5.5 128.5t20.5 211.5l13 127q3 28 6.5 70t6.5 75q1 19 3 33v10q1 9 3 36t3.5 58t2.5 54q0 19 1.5 38t1.5 30q2 18 2 37q0 29 -4 61q-1 10 -1.5 18t-0.5 11
q0 13 8.5 17.5t14.5 4.5t11 -2zM197 1402q5 -3 8.5 -8t3.5 -9q0 -1 2 -3.5t4 -4.5q6 -5 7 -9t1 -9v-6q0 -5 -2.5 -9.5t-8.5 -12.5q-4 -6 -9 -11.5t-9 -8.5q-5 -5 -8 -6t-10 -1t-9.5 1t-4.5 4q-2 2 -3 4t-1 3t-1 4t-3 6q-3 8 -3 22q0 13 4 22q1 3 3 7.5t3 8.5q4 13 12 16
t12 3q6 0 12 -3z" />
    <glyph glyph-name="cent" unicode="&#xa2;" horiz-adv-x="760" 
d="M287 222q-16 5 -31 11q-52 22 -82.5 62.5t-46.5 92.5q-27 90 -27 189q0 62 11 128q28 169 100 305q24 47 55 90t73 77q39 30 86 40q23 136 33 173q2 7 10.5 12t18.5 5q4 0 6.5 -1t4.5 -4q4 -5 4 -19t-4 -45.5t-13 -91.5l-4 -27q39 -4 68 -28.5t39 -71.5q3 -12 3 -26
q0 -7 -1 -15q-2 -22 -8 -40q0 -2 -1 -5q-3 -13 -10 -34.5t-17 -37.5t-22 -16h-2q-11 3 -14 16.5t-3 27.5v9q1 19 2 32q0 3 1 6q1 9 1 18q0 31 -9 56q-11 33 -36 44q-6 -41 -9.5 -65t-7.5 -52q-3 -25 -6.5 -56.5t-6.5 -55.5q-3 -33 -9 -84q-3 -25 -5 -46q-4 -30 -8 -68
q-5 -47 -9 -82q-13 -118 -22 -188t-18 -133q-3 -25 -7 -52q2 0 3 1h1q64 28 108 83q37 47 65.5 106t50.5 114q1 2 2 6q5 12 12 27.5t12 22.5q7 8 16 8q4 0 8 -1q8 -1 13 -5t5 -9q0 -3 -1 -6q-24 -78 -55 -152q-34 -74 -81 -138q-23 -31 -54 -57.5t-66 -41.5q-24 -9 -46 -12
l-17 -124q-3 -26 -5.5 -39t-6 -17.5t-10.5 -7.5q-3 -1 -7 -2t-7 -1h-4q-4 0 -6 2q-1 2 -1.5 9.5t-0.5 17.5q2 68 3 122q1 22 1 43q-3 0 -7 1h-2zM412 1143q-9 -5 -18 -13q-43 -38 -72 -87q-79 -131 -112 -281q-8 -39 -12 -80l-1 -9q-1 -6 -1 -11q-6 -41 -7 -81
q0 -66 17 -150.5t63 -134.5q12 -12 29 -21q3 80 10 161.5t24 197.5q1 5 2.5 16t3.5 23q4 27 11 75.5t14 92.5t9 60q2 14 7 42q4 23 8 47q1 9 3 19z" />
    <glyph glyph-name="sterling" unicode="&#xa3;" horiz-adv-x="1003" 
d="M324 307q20 121 33 270q-74 3 -107 13q-33 11 -40 19t-7 13q0 3 2 6q7 7 16.5 8.5t14.5 1.5q7 0 14 -2q42 -11 111 -14q12 138 34.5 276t68.5 257.5t130 201.5q18 17 33.5 27t35.5 16q11 5 20 6t27 1q23 0 39 -3.5t32 -13.5q42 -23 42 -89v-10q0 -43 -23 -100
q-10 -25 -23 -50q-14 -22 -25 -22h-3q-7 2 -7 10q0 9 6 23q35 74 35 132q0 9 -1 17q-6 63 -55 76q-4 1 -7 1q-18 0 -39 -23q-64 -63 -110 -225q-29 -101 -44.5 -205.5t-27.5 -210.5q-5 -47 -11 -94q54 0 96.5 2t61.5 3q28 2 81 8.5t94 12.5h4q6 0 13 -2q10 -3 14.5 -7
t4.5 -8q0 -2 -2 -5q-4 -6 -23 -12q-29 -14 -217 -31q-13 -1 -49 -2.5t-84 -2.5q-16 -131 -49 -258q-4 -12 -6 -21t-2 -10q0 -4 88 -16q63 -9 96 -12.5t53 -3.5h38h41q56 1 85 2.5t52 5.5h7q12 0 16 -6q2 -3 2 -6q0 -5 -4 -10q-6 -9 -19 -9q-27 -8 -155 -13q-33 -1 -61 -1
t-51 1q-47 2 -129 13q-23 2 -41.5 4t-23.5 3h-10l-10 -27q-29 -78 -65 -121t-80 -58q-21 -6 -40 -6q-35 0 -63 21q-43 32 -47 63t-4 37q0 48 45 92q50 49 179 67zM308 230q2 11 4 20t2 10q0 4 -8 4t-25 -4q-69 -15 -93.5 -50.5t-24.5 -69.5q0 -20 7 -42q18 -29 36 -29
q11 0 22 10q30 26 52 75.5t28 75.5z" />
    <glyph glyph-name="yen" unicode="&#xa5;" horiz-adv-x="965" 
d="M475 151q37 104 64.5 219.5t46.5 226.5q-55 -5 -120.5 -16.5t-119.5 -35.5q-11 -4 -23 -4h-5q-15 0 -21 5t-6 10t4 11q9 12 43 30q50 23 129 34t128 14q10 63 18 119q40 289 50 521l1 28l-8 -16q-11 -21 -77 -169q-36 -81 -64.5 -136.5t-59.5 -103.5
q-77 -121 -127.5 -142t-74.5 -21q-43 0 -77 34q-54 55 -72 191q-3 29 -3.5 58.5t-0.5 42.5q0 26 1 45q6 72 22 144t36 116q12 28 29 39t47 12h8q29 0 29 -24q0 -6 -2 -14q-38 -137 -52 -303q-2 -37 -2 -79v-29q1 -59 6 -92q14 -75 39 -97q2 -2 7 -2q12 0 42 21
q46 33 101 103t101 154q18 32 31 58t30 65t47 109q14 34 25 58t14 28q9 7 25.5 7.5t26.5 -5.5q13 -10 14.5 -29.5t1.5 -38.5t-1 -43q-1 -35 -1 -83q0 -223 -34 -491q-1 -15 -3 -29q35 1 63 1q64 0 84 -5q22 -4 26 -9t4 -9q0 -3 -2 -6q-5 -7 -15 -11.5t-19 -4.5q-15 1 -33 1
t-38 -1q-41 -1 -77 -3q-16 -116 -42 -230t-67 -225q-28 -71 -56 -96.5t-41 -25.5q-10 0 -16 9q-5 7 -5 22q0 30 21 93z" />
    <glyph glyph-name="copyright" unicode="&#xa9;" horiz-adv-x="1037" 
d="M471 215q-127 9 -221 85q-80 63 -115 156.5t-35 241.5q0 53 4.5 92t15.5 88q38 178 133 274q40 42 83 59q12 5 23 7t33 2q12 1 22 1q18 0 25 -3q4 -2 4 -5q0 -4 -6 -10q-5 -4 -5 -5t5 -2q4 0 16 -1t28 -2q89 -4 140 -14t95 -33q122 -58 173 -169q45 -84 47 -186
q1 -13 1 -26q0 -109 -52 -229q-51 -128 -133 -212q-92 -101 -223 -108q-16 -2 -28 -2.5t-14 -0.5t-6.5 0.5t-9.5 1.5zM320 471q-21 21 -33 54q-18 42 -18 96q0 57 20 128q51 171 145 232q29 18 48.5 23t36.5 5q9 0 18 -1q24 -2 39.5 -10t29.5 -25q33 -37 34 -105v-8
q0 -11 -2 -21q-4 -12 -8 -17.5t-7 -5.5q-2 0 -4 2q-5 4 -5 26q-1 11 -2 24t-3 22q-11 39 -32 63q-26 27 -42 27h-1q-6 -1 -18 -11t-24 -23.5t-20 -24.5q-37 -61 -61 -155t-24 -165v-11q6 -90 46 -118q11 -7 25 -7q13 0 28 6q32 13 86 54q24 19 42 36t49 52q40 44 66.5 79.5
t58.5 89.5q7 12 11.5 19.5t7.5 11t5 4t4 0.5q6 -1 6 -3.5v-3.5q0 -5 -5 -15q-6 -12 -20 -37q-57 -102 -141 -203q-39 -47 -96.5 -85.5t-92.5 -42t-41 -3.5q-56 0 -106 47zM570 260q9 2 20.5 7t19.5 9q72 39 136 128t102 202q22 65 27 135q1 17 1 34q0 173 -95 279
q-31 33 -79.5 58.5t-97.5 36.5q-11 2 -46 6t-77 8.5t-74 7t-37 2.5q-5 -2 -18 -15t-27.5 -30t-24.5 -31q-70 -111 -96 -280q-3 -23 -3.5 -53t-0.5 -45q0 -30 1 -61q1 -46 5 -72q14 -113 56 -179q80 -122 197 -152q18 -3 43 -3h13q33 1 55 8z" />
    <glyph glyph-name="guillemotleft" unicode="&#xab;" horiz-adv-x="1000" 
d="M443 348q-32 9 -72 35.5t-102 81.5q-91 82 -129.5 122.5t-39.5 57.5v4q0 4 1 9q2 6 9 14.5t22 23.5q9 10 24 25.5t27 29.5q61 66 127.5 128t101.5 86q24 14 42.5 16.5t25.5 2.5q18 0 31 -6q9 -4 10.5 -7.5t1.5 -5.5q0 -4 -3 -9q-6 -10 -73 -78t-158 -156
q-23 -23 -39.5 -40t-18.5 -21q-2 -3 -2 -6t3 -7.5t10.5 -14t20.5 -26.5l3 -3q69 -86 166 -178q27 -26 42 -37t30 -17q18 -6 18 -13q0 -2 -1 -4q-6 -8 -22 -9.5t-23 -1.5q-17 0 -33 4zM820 348q-32 9 -72 35.5t-102 81.5q-91 82 -129.5 122.5t-39.5 57.5v4q0 4 1 9
q2 6 9 14.5t22 23.5q10 10 24.5 25.5t26.5 29.5q61 66 127.5 128t101.5 86q24 14 42.5 16.5t25.5 2.5q18 0 31 -6q9 -4 10.5 -7.5t1.5 -5.5q0 -4 -3 -9q-6 -10 -73 -78t-158 -156q-23 -23 -39.5 -40t-18.5 -21q-2 -3 -2 -6t3 -7.5t10.5 -14.5t21.5 -27l2 -2q69 -86 166 -178
q27 -26 42 -37t30 -17q18 -6 18 -13q0 -2 -1 -4q-6 -8 -22 -9.5t-23 -1.5q-17 0 -33 4z" />
    <glyph glyph-name="registered" unicode="&#xae;" horiz-adv-x="556" 
d="M258 1004q-54 4 -94 37q-34 26 -49 66t-15 103q0 23 2 39.5t6 37.5q17 76 57 117q17 18 36 25q5 2 9.5 3t13.5 1h10q13 0 13 -3q0 -2 -3 -4l-2 -2q0 -1 2 -1q1 0 6.5 -0.5t11.5 -0.5q38 -2 60 -6.5t41 -13.5q52 -25 74 -72q19 -36 19 -80v-11q0 -46 -21 -98
q-22 -54 -57 -90q-39 -43 -95 -46q-7 -1 -10.5 -1h-5.5h-9zM292 1081q-8 3 -13.5 7.5t-8.5 13.5q-5 11 -7 25.5t-2 25.5v8q2 55 18 109l3 9l-2 -2q-6 -4 -13.5 -8t-12.5 -6q-9 -3 -21 -3t-20 2q-23 7 -32 33q-5 11 -6 22v4q0 11 9 14q6 2 12 2q5 0 10 -1q11 -3 13 -11
q0 -8 1 -17q2 -11 5 -21t9 -14q2 -2 6 -2q10 0 33 13q9 5 13 8t6 6q8 11 19 14q3 1 7 1h3q6 0 10 -1q6 -2 7 -6t1 -7q0 -7 -3 -18q-3 -16 -12 -48q-12 -45 -15.5 -66t-3.5 -38v-8q0 -19 4 -24l1 -1h1q1 0 3 2l7 7q18 17 35 53q12 22 19.5 41.5t16.5 48.5q10 29 16 29h1
q2 -2 2 -8q0 -9 -5 -29q-26 -88 -54 -130q-19 -30 -43 -30h-8q-6 0 -9 1zM301 1023q3 2 8 4t9 4q30 16 57.5 54t43.5 86q10 28 11 58q1 8 1 16q0 73 -41 118q-13 13 -33.5 24t-41.5 16q-5 1 -20 2.5t-33 3.5t-31.5 3t-15.5 1q-2 -1 -7.5 -6.5t-11.5 -12.5t-11 -13
q-29 -47 -41 -120q-1 -9 -1 -23.5v-24.5v-19q1 -20 2 -31q6 -49 24 -76q34 -53 84 -65q7 -1 15 -1h9q14 0 24 2z" />
    <glyph glyph-name="degree" unicode="&#xb0;" horiz-adv-x="456" 
d="M115 1203q-15 30 -15 63q0 25 8 51q7 22 22.5 44.5t36.5 34.5q1 1 3 2q10 5 15.5 9.5t5.5 7.5q0 1 -1 2q-6 3 -6 6q0 2 4 5q7 6 24 6q58 -3 101 -48t43 -102q0 -7 -1 -15q-12 -62 -57 -90.5t-89 -28.5q-8 0 -15 1q-53 6 -79 52zM215 1347q-15 -32 -20 -60.5t-5 -42.5
q0 -24 9 -42q12 -20 28 -20q5 0 11 2q22 8 39 36t17 58q-2 33 -14 62.5t-22 33t-13 3.5q-15 0 -30 -30z" />
    <glyph glyph-name="guillemotright" unicode="&#xbb;" horiz-adv-x="915" 
d="M150 350q-7 2 -8 4t-1 4t1 5q0 4 4.5 13t10.5 19q15 25 57.5 88.5t78.5 116.5q34 50 52.5 77.5t24 39t5.5 15.5v2q-3 6 -36 33.5t-75 60.5t-74 56q-48 34 -69 52t-21 23v5q0 8 15 14q13 5 32 5h6q22 -2 41 -10q18 -9 50 -30.5t55 -39.5q27 -21 61.5 -53.5t64 -61.5
t38.5 -42q6 -8 5.5 -18.5t-12.5 -32t-40.5 -62.5t-78.5 -109q-127 -175 -136 -175q-8 -3 -20 -3h-6q-15 0 -25 4zM496 350q-6 2 -7 4t-1 4v5q1 4 5 13t10 19q15 25 57.5 88.5t79.5 116.5q34 50 52 77.5t24 39t6 15.5q0 1 -1 2q-3 6 -35.5 33.5t-75 60.5t-74.5 56
q-47 34 -68.5 52t-21.5 27t15 15q14 5 32 5h6q22 -2 41 -10q18 -9 50 -30.5t56 -39.5q26 -21 61 -53.5t64 -61.5t38 -42q6 -7 6 -16v-2q0 -11 -12.5 -32.5t-41 -62.5t-78.5 -109q-126 -175 -136 -175q-8 -3 -19 -3h-6q-16 0 -26 4z" />
    <glyph glyph-name="questiondown" unicode="&#xbf;" horiz-adv-x="825" 
d="M471 1164q30 -8 40 -43q3 -6 3.5 -14.5t0.5 -28.5q0 -13 -0.5 -24t-1.5 -14t-2 -10l-2 -14q-1 -8 -3 -16.5t-3 -13.5t-3 -13t-3 -14q-8 -35 -14 -54q-2 -5 -3.5 -10t-2.5 -9q-1 -3 -2 -6.5t-2 -5.5q0 -1 -2 -6.5t-4 -12.5q-2 -6 -4 -11.5t-3 -7.5q0 -1 -2 -6.5t-5 -12.5
l-1 -4q-2 -6 -4.5 -12.5t-4.5 -11.5l-4 -10q-1 -5 -2 -7q-1 -4 -4 -11t-5 -12q-1 -1 -3 -6.5t-5 -12.5q-1 -1 -1 -2l-2 -4l-6 -14t-5 -11q-2 -5 -4.5 -10t-3.5 -8q-10 -24 -59 -121q-14 -29 -33 -66t-33 -66q-26 -51 -39.5 -79t-23.5 -52q-2 -6 -4 -11q-3 -5 -4 -8
q-1 -2 -2.5 -7t-3.5 -10t-3.5 -9.5t-2.5 -5.5q-3 -8 -7.5 -27t-6.5 -34q-1 -8 -1 -14q0 -25 15 -33l6 -2t4 -2q3 -1 12 -1h9q15 1 30.5 3t19.5 5q1 1 3 1.5t4 1.5q30 8 96 47q3 1 10 6t16 11t15 11q40 28 83 71.5t75 87.5q40 57 62 109l2 4q1 4 2.5 7.5t2.5 4.5
q1 4 3.5 11.5t5 14.5t2.5 9v2.5t1 2.5t2 4.5t2 7.5q1 5 1.5 9.5t1.5 6.5q4 23 4 48v10q-1 31 -8 54q-10 34 -30 37q-10 3 -11 7.5t-1 5.5q0 6 4 10q3 2 6.5 3t12.5 1q25 0 44 -20q42 -45 43 -131q-3 -177 -171 -347q-18 -17 -35 -33t-28 -24l-3 -3q-6 -5 -13 -10
q-35 -27 -81 -55q-9 -5 -24 -12.5t-28.5 -14t-15.5 -6.5q-1 0 -3 -1l-4 -2q-5 -3 -14.5 -6.5t-15.5 -4.5q-2 -1 -4.5 -1.5t-4.5 -1.5q-5 -2 -20.5 -4.5t-30.5 -4.5q-8 -1 -15 -1q-51 0 -83 30q-31 32 -31 86q0 8 1 16q2 21 6.5 43t8.5 32q1 2 2 5t2 7q1 3 2 6.5t1 4.5
q1 2 3.5 9.5l5.5 16.5q4 9 6.5 16.5t4.5 10.5v1q1 3 3 7.5t4 8.5q3 9 5.5 15t7.5 16q2 4 3 6.5t1 3.5l3 6q2 6 6 14l7 14l2 6l7 15q7 15 17 36q30 64 30 66q0 1 0.5 1.5t1.5 0.5t2 1q0 4 82 171q11 23 20.5 42.5t12.5 26.5q24 50 24 52l1 1q0 1 1.5 3.5t3.5 7.5q1 4 4 10
q4 8 9.5 23t10.5 28t5 15q0 1 0.5 2t1.5 2q0 1 1 4t2 7q1 3 2 6.5t2 3.5q1 1 1.5 3.5t1.5 5.5q0 2 1 4.5t2 4.5t4 13t6.5 25.5t6.5 27.5q3 17 4.5 28t1.5 21q-1 7 -1 10t-1 4t-3 1q-19 3 -22 12t-3 13q0 9 9 17q3 2 7 3t12 2q6 0 11 -0.5t7 -0.5zM476 1366q4 -2 8 -5t6 -6
q3 -2 4 -4t1 -5t-1 -9q0 -5 -1 -9t-1 -6q-1 -2 -2 -5.5t-2 -8.5q-6 -22 -18 -27t-17 -5q-11 0 -22 9q-6 5 -8 11t-2 17q0 36 22 54q6 3 15 3t18 -4z" />
    <glyph glyph-name="multiply" unicode="&#xd7;" horiz-adv-x="621" 
d="M145 470q-4 2 -6.5 5t-2.5 5q0 20 104 176l36 54l-20 21q-55 61 -104 135q-29 44 -40.5 63.5t-11.5 24.5v1q2 6 13 10.5t25 4.5q18 0 30 -5t26 -21.5t37 -51.5q81 -117 87 -121q2 2 15 21t31 45t34.5 50t23.5 35q10 14 17.5 24t10.5 12q3 1 10 2t14 1q10 0 14.5 -1
t8.5 -6q4 -4 4.5 -6t0.5 -3q0 -3 -1 -6q-2 -11 -24 -46t-78 -118q-16 -23 -27 -39.5t-11 -18.5q0 -1 4.5 -7t11.5 -13q13 -15 23 -26q33 -37 45 -51q6 -6 18.5 -21t26.5 -31q17 -20 24 -30.5t7 -15.5v-1q-1 -5 -10 -8q-10 -4 -24 -4t-23 4q-8 4 -32.5 28.5t-54 55.5
t-49.5 55l-4 4t-3 2l-14 -21q-15 -21 -36 -51l-8 -12q-27 -41 -42.5 -63.5t-24 -32.5t-13.5 -12t-12 -2h-2q-14 0 -24 6z" />
    <glyph glyph-name="divide" unicode="&#xf7;" horiz-adv-x="306" 
d="M126 430q-10 4 -17 11.5t-9 15.5v6q0 10 2 21q4 14 11 22q4 3 9.5 6t10.5 5q6 2 13 2q24 0 51 -27q6 -5 7.5 -9t1.5 -14q0 -9 -2 -13.5t-8 -11.5q-11 -10 -22 -14q-11 -3 -25 -3t-23 3zM126 861q-10 3 -17 10.5t-9 15.5v6q0 10 2 21q4 15 11 22q4 3 9.5 6.5t10.5 4.5
q7 2 13 2q24 0 51 -26q6 -6 7.5 -10t1.5 -13q0 -10 -2 -14.5t-8 -11.5q-5 -5 -11 -8.5t-11 -5.5q-8 -2 -18 -2h-7q-14 0 -23 3z" />
    <glyph glyph-name="quoteleft" unicode="&#x2018;" horiz-adv-x="417" 
d="M299 1431q8 -2 13 -7t5 -11v-2q-5 -17 -64 -117q-17 -30 -31 -54t-17 -30q-12 -22 -32 -30q-11 -4 -24 -4q-6 0 -13 1q-20 2 -31 11q-3 4 -4 7t-1 6v3q1 3 3 7.5t7.5 11.5t15.5 20q37 47 118 161q8 12 13.5 18t10.5 8.5t13 2.5q2 1 4 1t4 -1q5 0 10 -2z" />
    <glyph glyph-name="quoteright" unicode="&#x2019;" 
d="M118 1178q-9 2 -13.5 7.5t-4.5 10.5v2q4 17 63 117q17 30 31 54t18 30q11 22 31 30q14 5 28 5q4 0 9 -1q20 -3 31 -12q3 -3 4.5 -5.5t1.5 -4.5l-1 -5q0 -4 -2.5 -8.5t-7.5 -11.5t-15 -20q-38 -47 -119 -160q-8 -13 -13.5 -19t-10.5 -8t-12 -3q-4 0 -9 0.5t-9 1.5z" />
    <glyph glyph-name="quotesinglbase" unicode="&#x201a;" 
d="M118 432q-9 2 -13.5 7.5t-4.5 10.5v2q4 18 63 118q18 30 31.5 53.5t17.5 30.5q11 22 31 29q13 5 26 5q5 0 11 -1q20 -2 31 -12q3 -3 4.5 -5.5t1.5 -4.5l-1 -5q0 -5 -5.5 -13t-19.5 -26q-38 -47 -118 -161q-9 -12 -14.5 -18.5t-10.5 -8.5t-12 -3q-4 0 -9 0.5t-9 1.5z" />
    <glyph glyph-name="quotedblleft" unicode="&#x201c;" horiz-adv-x="566" 
d="M118 1178q-9 2 -13.5 7.5t-4.5 10.5v2q4 17 63 117q18 30 32 54t17 30q12 22 32 30q13 5 27 5l10 -1q19 -3 30 -12q4 -3 5 -5.5t1 -4.5l-1 -5q0 -4 -2 -8.5t-7.5 -11.5t-15.5 -20q-37 -47 -118 -160q-9 -13 -14 -19t-10 -8t-13 -3q-3 0 -8 0.5t-10 1.5zM267 1104
q-8 3 -13 8t-5 11v2q5 17 63 117q18 30 32 53.5t17 30.5q12 22 32 30q11 4 24 4q6 0 13 -1q20 -2 30 -12q4 -3 5 -6.5t1 -8.5q-1 -3 -3 -7.5t-7.5 -12t-15.5 -19.5q-37 -47 -118 -161q-9 -12 -14 -18.5t-10 -8.5t-13 -3q-3 0 -8 0.5t-10 1.5z" />
    <glyph glyph-name="quotedblright" unicode="&#x201d;" horiz-adv-x="565" 
d="M448 1358q8 -2 12.5 -7.5t4.5 -10.5v-2q-4 -18 -63 -117q-17 -31 -31 -54.5t-18 -30.5q-11 -22 -31 -29q-13 -4 -28 -4h-9q-20 2 -31 12q-3 3 -4 6t-1 5v4q0 4 2.5 8t7.5 11.5t15 19.5q38 48 119 161q8 13 13.5 19t10.5 8t13 3q3 0 8 -0.5t10 -1.5zM298 1432
q9 -3 13.5 -8t4.5 -11v-2q-4 -17 -63 -117q-18 -30 -31.5 -54t-17.5 -30q-12 -22 -31 -30q-12 -4 -24 -4q-7 0 -13 1q-20 2 -31 11q-4 4 -4.5 6.5t-0.5 4.5v5q0 3 2.5 7.5t7.5 11.5t15 20q38 47 118 161q9 12 14.5 18t10.5 8.5t12 2.5q2 1 4 1t4 -1q6 0 10 -1z" />
    <glyph glyph-name="quotedblbase" unicode="&#x201e;" horiz-adv-x="566" 
d="M448 686q8 -3 13 -8t5 -11v-2q-5 -17 -63 -117q-18 -30 -32 -54t-17 -30q-12 -22 -32 -30q-11 -4 -24 -4q-6 0 -13 1q-20 2 -31 11q-3 4 -4 7.5t-1 8.5q1 5 6 13t20 26q37 47 118 161q8 12 13.5 18t10.5 8.5t13 2.5q2 1 4 1t4 -1q5 0 10 -1zM299 759q8 -2 13 -8t5 -12
q-5 -17 -64 -117q-17 -31 -31 -54.5t-17 -29.5q-12 -23 -32 -30q-13 -4 -27 -4h-10q-20 2 -31 12q-3 3 -4 6t-1 6v3q0 4 2.5 8.5t7.5 11.5t15 19q38 48 119 161q8 13 13.5 19t10.5 8t13 3q3 0 8 -0.5t10 -1.5z" />
    <glyph glyph-name="dagger" unicode="&#x2020;" horiz-adv-x="678" 
d="M341 351q-3 2 -6 5t-5 7q-2 9 -5 60.5t-5.5 122t-4.5 136.5q-1 22 -2 42v16q-1 40 -2 41q-2 1 -14 0.5t-31 -1.5q-42 -2 -88 -2q-47 0 -67 10q-11 7 -11 13q0 8 14 15q21 9 126 15q25 2 42.5 3t20.5 2q2 0 3.5 1.5t1.5 6t-0.5 14.5t-1.5 27v70q0 42 2 75.5t5 39.5
q12 17 49 17q44 0 51 -22q6 -15 7.5 -51t1.5 -57q0 -31 -2 -62q-1 -23 -1.5 -38.5t-0.5 -16.5h88q56 0 64 -8.5t8 -12.5q0 -8 -16 -17q-24 -13 -74 -14q-13 -1 -29 -1h-28h-15q-1 -1 -1 -40l-1 -54v-8q-1 -62 -3 -133t-4 -124.5t-4 -63.5q-2 -4 -5 -7.5t-6 -5.5
q-6 -3 -13.5 -3.5t-12.5 -0.5h-10q-10 1 -15 4z" />
    <glyph glyph-name="guilsinglleft" unicode="&#x2039;" horiz-adv-x="623" 
d="M444 348q-32 9 -72 35.5t-102 81.5q-92 82 -130 122.5t-40 57.5v4q0 4 1 9q2 6 9.5 14.5t21.5 23.5q10 10 25 25.5t27 29.5q61 66 127 128t102 86q24 14 42.5 16.5t25.5 2.5q18 0 31 -6q9 -4 10 -7t1 -5q0 -4 -2 -10q-6 -10 -73.5 -78t-157.5 -156q-23 -23 -39.5 -40
t-18.5 -21q-2 -3 -2 -6t3 -7.5t10.5 -14.5t21.5 -27l2 -2q69 -86 165 -178q28 -26 43 -37t30 -17q18 -6 18 -13q0 -2 -1 -4q-6 -8 -22 -9.5t-23 -1.5q-17 0 -33 4z" />
    <glyph glyph-name="guilsinglright" unicode="&#x203a;" horiz-adv-x="569" 
d="M150 350q-6 2 -7 4t-1 4v5q1 4 5 13t10 19q15 25 57.5 88.5t79.5 116.5q34 50 52.5 77.5t24 39t5.5 15.5q0 1 -1 2q-3 6 -35.5 33.5t-74.5 60.5t-75 56q-47 34 -68.5 52t-21.5 27t15 15q14 5 32 5h6q23 -2 42 -10q18 -9 50 -30.5t55 -39.5q26 -21 61 -53.5t64 -61.5
t38 -42q6 -7 6 -16v-2q0 -11 -12 -32.5t-41 -62.5t-79 -109q-126 -175 -136 -175q-8 -3 -19 -3h-6q-16 0 -26 4z" />
    <glyph glyph-name="Euro" unicode="&#x20ac;" horiz-adv-x="940" 
d="M187 370q3 128 32 279q-26 -3 -40.5 -3.5t-19.5 -0.5q-15 0 -26 2q-33 7 -33 20q0 2 1 5q4 10 25.5 14.5t73.5 6.5q12 0 28 1q12 53 26 106q-19 -2 -29 -3q-27 -4 -42.5 -4.5t-21.5 -0.5q-17 0 -28 2q-33 7 -33 20q0 2 1 5q4 10 25.5 14.5t73.5 6.5q24 1 66 3
q43 150 101.5 276.5t124.5 198.5t133 72h9q62 -4 106 -55q31 -35 47.5 -72t16.5 -66v-3q-1 -15 -6 -23.5t-10 -8.5h-2q-6 2 -10 20q-13 76 -53.5 116t-85.5 40q-15 0 -31 -4q-43 -13 -74.5 -57.5t-54 -100.5t-37.5 -105q-34 -101 -67 -221q40 3 76.5 5.5t53.5 3.5
q18 1 47.5 2t55.5 1q32 0 49.5 -0.5t25.5 -3t12 -7.5q3 -3 3 -4q0 -2 -4 -5q-1 -2 -6 -3.5t-18 -3t-36.5 -3.5t-62 -5.5t-94.5 -7.5q-66 -6 -113 -9q-15 -55 -29 -110l27 2q43 3 83.5 6t59.5 4q18 1 47.5 2t55.5 1q32 0 49.5 -0.5t25.5 -3t12 -7.5q3 -3 3 -4q0 -2 -4 -5
q-1 -2 -6 -3t-18 -3t-36.5 -4t-62 -5.5t-94.5 -7.5q-95 -8 -152 -13q-37 -156 -49 -268q-3 -29 -3 -56q0 -76 21 -138q29 -84 68 -94t51 -10q62 0 149 75q28 24 51.5 51t52.5 67q63 90 109 181q16 30 34 61q8 13 13.5 14t6.5 1q8 0 11 -7q2 -3 2 -7q0 -8 -6 -20
q-15 -33 -35 -73t-31 -59q-26 -47 -71 -111t-75 -100q-45 -51 -102 -84.5t-118 -38.5h-10q-83 0 -127 49q-48 52 -63 124.5t-15 137.5v16z" />
    <glyph glyph-name="minus" unicode="&#x2212;" horiz-adv-x="914" 
d="M140 609q-40 9 -40 24q0 3 1 6q6 12 31.5 17.5t88.5 7.5q30 2 84 5t106 6q52 4 100.5 7.5t71.5 4.5q22 2 57 3t66 1q38 0 59 -1t31 -4t15 -8q3 -4 3 -5q0 -2 -4 -6q-2 -2 -8 -4t-21.5 -4t-43.5 -4.5t-74 -6.5t-114 -9q-263 -21 -298 -27q-33 -4 -52 -4.5t-26 -0.5
q-20 0 -33 2z" />
  </font>
</defs>
</svg>
